<svg xmlns="http://www.w3.org/2000/svg" width="1280" height="720" viewBox="0 0 1280 720"><defs><pattern id="bpGridMajor" width="40" height="40" x="0" y="0" data-pptx-pattern="lgGrid" patternUnits="userSpaceOnUse"><rect width="40" height="40" fill="#0E2A47"/><path fill="none" stroke="#2D4A6B" stroke-width=".6" d="M 40 0 L 0 0 0 40"/></pattern><pattern id="bpGridMinor" width="8" height="8" x="0" y="0" data-pptx-pattern="smGrid" patternUnits="userSpaceOnUse"><rect width="8" height="8" fill="#0E2A47"/><path fill="none" stroke="#1A3A5C" stroke-width=".3" d="M 8 0 L 0 0 0 8"/></pattern></defs><g id="bg"><rect width="1280" height="720" fill="#0E2A47"/><rect width="1280" height="720" fill="url(#bpGridMinor)" opacity=".4"/><rect width="1280" height="720" fill="url(#bpGridMajor)" opacity=".6"/></g><g id="header"><text x="60" y="42" fill="#F0F4F8" font-family="Arial, 'Microsoft YaHei', sans-serif" font-size="30" font-weight="bold">Two Planes, One Spine</text><text x="1220" y="42" fill="#A0B8D0" font-family="Consolas, 'Courier New', monospace" font-size="11" text-anchor="end">P02 / 10</text><line x1="60" x2="1220" y1="58" y2="58" stroke="#2D4A6B" stroke-width=".5"/><text x="60" y="78" fill="#6B85A3" font-family="Arial, 'Microsoft YaHei', sans-serif" font-size="13">EVERY DECISION GOES THROUGH <tspan fill="#FFB627" font-family="Consolas, 'Courier New', monospace">kube-apiserver</tspan></text></g><g id="cp-zone-decor"><rect width="1120" height="240" x="80" y="105" fill="#1A3A5C" fill-opacity=".35" stroke="#3E7AB8" stroke-dasharray="4 4" stroke-width=".6"/><text x="100" y="130" fill="#FFB627" font-family="Consolas, 'Courier New', monospace" font-size="12" letter-spacing="2">[ CONTROL PLANE ]</text><text x="100" y="148" fill="#A0B8D0" font-family="Arial, 'Microsoft YaHei', sans-serif" font-size="13">Global decision-making · desired-state holder</text></g><g id="cp-apiserver"><rect width="200" height="120" x="540" y="180" fill="#0E2A47" stroke="#FFB627" stroke-width="2"/><rect width="200" height="22" x="540" y="180" fill="#FFB627"/><text x="640" y="196" fill="#0E2A47" font-family="Consolas, 'Courier New', monospace" font-size="11" font-weight="bold" text-anchor="middle">▲ HUB</text><text x="640" y="234" fill="#FFB627" font-family="Consolas, 'Courier New', monospace" font-size="15" font-weight="bold" text-anchor="middle">kube-apiserver</text><text x="640" y="258" fill="#F0F4F8" font-family="Arial, 'Microsoft YaHei', sans-serif" font-size="11" text-anchor="middle">REST + admission</text><text x="640" y="276" fill="#F0F4F8" font-family="Arial, 'Microsoft YaHei', sans-serif" font-size="11" text-anchor="middle">+ validation gateway</text><text x="640" y="294" fill="#A0B8D0" font-family="Consolas, 'Courier New', monospace" font-size="9" text-anchor="middle">↕ talks to etcd only</text></g><g id="cp-etcd"><rect width="160" height="90" x="120" y="195" fill="#0E2A47" stroke="#5BA3E0" stroke-width="1.5"/><text x="200" y="220" fill="#5BA3E0" font-family="Consolas, 'Courier New', monospace" font-size="13" font-weight="bold" text-anchor="middle">etcd</text><text x="200" y="244" fill="#F0F4F8" font-family="Arial, 'Microsoft YaHei', sans-serif" font-size="11" text-anchor="middle">key-value store</text><text x="200" y="260" fill="#A0B8D0" font-family="Arial, 'Microsoft YaHei', sans-serif" font-size="11" text-anchor="middle">Raft · quorum</text><text x="200" y="276" fill="#6B85A3" font-family="Consolas, 'Courier New', monospace" font-size="9" text-anchor="middle">3 or 5 members</text></g><g id="cp-sched"><rect width="180" height="90" x="320" y="195" fill="#0E2A47" stroke="#5BA3E0" stroke-width="1.5"/><text x="410" y="220" fill="#5BA3E0" font-family="Consolas, 'Courier New', monospace" font-size="13" font-weight="bold" text-anchor="middle">kube-scheduler</text><text x="410" y="244" fill="#F0F4F8" font-family="Arial, 'Microsoft YaHei', sans-serif" font-size="11" text-anchor="middle">filter → score → bind</text><text x="410" y="260" fill="#A0B8D0" font-family="Arial, 'Microsoft YaHei', sans-serif" font-size="11" text-anchor="middle">picks node per Pod</text></g><g id="cp-ctrl"><rect width="200" height="90" x="780" y="195" fill="#0E2A47" stroke="#5BA3E0" stroke-width="1.5"/><text x="880" y="220" fill="#5BA3E0" font-family="Consolas, 'Courier New', monospace" font-size="12" font-weight="bold" text-anchor="middle">controller-manager</text><text x="880" y="244" fill="#F0F4F8" font-family="Arial, 'Microsoft YaHei', sans-serif" font-size="11" text-anchor="middle">watch · diff · act</text><text x="880" y="260" fill="#A0B8D0" font-family="Arial, 'Microsoft YaHei', sans-serif" font-size="11" text-anchor="middle">N reconcile loops</text></g><g id="cp-cloud"><rect width="160" height="90" x="1020" y="195" fill="#0E2A47" stroke="#3E7AB8" stroke-dasharray="4 3" stroke-width="1.5"/><text x="1100" y="220" fill="#3E7AB8" font-family="Consolas, 'Courier New', monospace" font-size="12" font-weight="bold" text-anchor="middle">cloud-ctrl-mgr</text><text x="1100" y="244" fill="#A0B8D0" font-family="Arial, 'Microsoft YaHei', sans-serif" font-size="11" text-anchor="middle">cloud only</text><text x="1100" y="260" fill="#A0B8D0" font-family="Arial, 'Microsoft YaHei', sans-serif" font-size="11" text-anchor="middle">LB · routes · nodes</text><text x="1100" y="277" fill="#6B85A3" font-family="Consolas, 'Courier New', monospace" font-size="9" text-anchor="middle">optional</text></g><g id="cp-zone-decor-arrows"><path fill="none" stroke="#FFB627" stroke-width="1.2" d="M 260,285 Q 260,318 420,318 Q 580,318 580,290"/><polygon fill="#FFB627" points="580 290 575 300 585 300"/><line x1="740" x2="780" y1="240" y2="240" stroke="#FFB627" stroke-width="1.2"/><line x1="980" x2="1020" y1="240" y2="240" stroke="#3E7AB8" stroke-dasharray="3 3" stroke-width="1"/></g><g id="spine"><line x1="640" x2="640" y1="345" y2="415" stroke="#FFB627" stroke-width="2"/><polygon fill="#FFB627" points="640 415 634 405 646 405"/><polygon fill="#FFB627" points="640 345 634 355 646 355"/><rect width="170" height="22" x="555" y="368" fill="#0E2A47"/><text x="640" y="384" fill="#FFB627" font-family="Consolas, 'Courier New', monospace" font-size="12" text-anchor="middle">API-MEDIATED</text></g><g id="dp-zone-decor"><rect width="1120" height="220" x="80" y="415" fill="#1A3A5C" fill-opacity=".35" stroke="#3E7AB8" stroke-dasharray="4 4" stroke-width=".6"/><text x="100" y="440" fill="#5BA3E0" font-family="Consolas, 'Courier New', monospace" font-size="12" letter-spacing="2">[ DATA PLANE ]</text><text x="100" y="458" fill="#A0B8D0" font-family="Arial, 'Microsoft YaHei', sans-serif" font-size="13">Pod execution · workload runtime</text><line x1="640" x2="640" y1="415" y2="445" stroke="#5BA3E0" stroke-dasharray="3 3" stroke-width="1" opacity=".5"/><line x1="270" x2="640" y1="445" y2="445" stroke="#5BA3E0" stroke-dasharray="3 3" stroke-width="1" opacity=".5"/><line x1="640" x2="1010" y1="445" y2="445" stroke="#5BA3E0" stroke-dasharray="3 3" stroke-width="1" opacity=".5"/><line x1="270" x2="270" y1="445" y2="490" stroke="#5BA3E0" stroke-dasharray="3 3" stroke-width="1" opacity=".5"/><line x1="640" x2="640" y1="445" y2="490" stroke="#5BA3E0" stroke-dasharray="3 3" stroke-width="1" opacity=".5"/><line x1="1010" x2="1010" y1="445" y2="490" stroke="#5BA3E0" stroke-dasharray="3 3" stroke-width="1" opacity=".5"/></g><g id="dp-node-1"><polygon fill="#0E2A47" stroke="#5BA3E0" stroke-width="1.5" points="270 490 360 535 360 605 270 650 180 605 180 535"/><line x1="270" x2="270" y1="490" y2="570" stroke="#5BA3E0" stroke-width="1"/><line x1="270" x2="180" y1="570" y2="535" stroke="#5BA3E0" stroke-width="1"/><line x1="270" x2="360" y1="570" y2="535" stroke="#5BA3E0" stroke-width="1"/><rect width="22" height="14" x="230" y="595" fill="none" stroke="#7FD99F" stroke-width="1"/><rect width="22" height="14" x="259" y="595" fill="none" stroke="#7FD99F" stroke-width="1"/><rect width="22" height="14" x="288" y="595" fill="none" stroke="#7FD99F" stroke-width="1"/><text x="270" y="675" fill="#A0B8D0" font-family="Consolas, 'Courier New', monospace" font-size="12" text-anchor="middle">worker-node-01</text></g><g id="dp-node-2"><polygon fill="#0E2A47" stroke="#5BA3E0" stroke-width="1.5" points="640 490 730 535 730 605 640 650 550 605 550 535"/><line x1="640" x2="640" y1="490" y2="570" stroke="#5BA3E0" stroke-width="1"/><line x1="640" x2="550" y1="570" y2="535" stroke="#5BA3E0" stroke-width="1"/><line x1="640" x2="730" y1="570" y2="535" stroke="#5BA3E0" stroke-width="1"/><rect width="22" height="14" x="600" y="595" fill="none" stroke="#7FD99F" stroke-width="1"/><rect width="22" height="14" x="629" y="595" fill="none" stroke="#7FD99F" stroke-width="1"/><rect width="22" height="14" x="658" y="595" fill="none" stroke="#7FD99F" stroke-width="1"/><text x="640" y="675" fill="#A0B8D0" font-family="Consolas, 'Courier New', monospace" font-size="12" text-anchor="middle">worker-node-02</text></g><g id="dp-node-3"><polygon fill="#0E2A47" stroke="#5BA3E0" stroke-width="1.5" points="1010 490 1100 535 1100 605 1010 650 920 605 920 535"/><line x1="1010" x2="1010" y1="490" y2="570" stroke="#5BA3E0" stroke-width="1"/><line x1="1010" x2="920" y1="570" y2="535" stroke="#5BA3E0" stroke-width="1"/><line x1="1010" x2="1100" y1="570" y2="535" stroke="#5BA3E0" stroke-width="1"/><rect width="22" height="14" x="970" y="595" fill="none" stroke="#7FD99F" stroke-width="1"/><rect width="22" height="14" x="999" y="595" fill="none" stroke="#7FD99F" stroke-width="1"/><text x="1010" y="675" fill="#A0B8D0" font-family="Consolas, 'Courier New', monospace" font-size="12" text-anchor="middle">worker-node-03</text></g><g id="footer"><line x1="60" x2="1220" y1="680" y2="680" stroke="#2D4A6B" stroke-width=".5"/><text x="60" y="700" fill="#6B85A3" font-family="Consolas, 'Courier New', monospace" font-size="11">K8S-ARCH-2026 · DRAWING 02 OF 10 · TOPOLOGY OVERVIEW</text><text x="1220" y="700" fill="#6B85A3" font-family="Consolas, 'Courier New', monospace" font-size="11" text-anchor="end">SHEET 02 OF 10</text></g></svg>