<svg xmlns="http://www.w3.org/2000/svg" width="1280" height="720" viewBox="0 0 1280 720"><defs><linearGradient id="topBar" x1="0%" x2="100%" y1="0%" y2="0%"><stop offset="0%" stop-color="#1A3A5C"/><stop offset="100%" stop-color="#2D8A4E"/></linearGradient><linearGradient id="coreGrad" x1="0%" x2="100%" y1="0%" y2="100%"><stop offset="0%" stop-color="#1A3A5C"/><stop offset="100%" stop-color="#2D8A4E"/></linearGradient><filter id="coreShadow"><feGaussianBlur in="SourceAlpha" stdDeviation="8"/><feOffset dx="0" dy="4"/><feComponentTransfer><feFuncA slope=".15" type="linear"/></feComponentTransfer><feMerge><feMergeNode/><feMergeNode in="SourceGraphic"/></feMerge></filter><filter id="nodeShadow"><feGaussianBlur in="SourceAlpha" stdDeviation="4"/><feOffset dx="0" dy="2"/><feComponentTransfer><feFuncA slope=".1" type="linear"/></feComponentTransfer><feMerge><feMergeNode/><feMergeNode in="SourceGraphic"/></feMerge></filter></defs><rect width="1280" height="720" fill="#FFF"/><rect width="1280" height="6" x="0" y="0" fill="url(#topBar)"/><circle cx="640" cy="380" r="320" fill="#1A3A5C" fill-opacity=".015"/><circle cx="640" cy="380" r="220" fill="#1A3A5C" fill-opacity=".02"/><text x="60" y="58" fill="#1A3A5C" font-family="'Helvetica Neue', Arial, sans-serif" font-size="30" font-weight="bold">A Four-Pillar Framework to Transform Customer Relationships</text><text x="60" y="85" fill="#5D6D7E" font-family="Georgia, 'Times New Roman', serif" font-size="16" font-style="italic">From transactional sales to enduring loyalty — a strategic architecture for Kimsoong Europe</text><line x1="640" x2="260" y1="380" y2="260" stroke="#1A3A5C" stroke-dasharray="6 4" stroke-opacity=".2" stroke-width="2"/><line x1="640" x2="1020" y1="380" y2="260" stroke="#E8A838" stroke-dasharray="6 4" stroke-opacity=".2" stroke-width="2"/><line x1="640" x2="260" y1="380" y2="520" stroke="#2D8A4E" stroke-dasharray="6 4" stroke-opacity=".2" stroke-width="2"/><line x1="640" x2="1020" y1="380" y2="520" stroke="#1A3A5C" stroke-dasharray="6 4" stroke-opacity=".2" stroke-width="2"/><circle cx="640" cy="380" r="80" fill="url(#coreGrad)" filter="url(#coreShadow)"/><g fill="#FFF"><path d="M6.979 3.074a6 6 0 0 1 4.988 1.425l.037 .033l.034 -.03a6 6 0 0 1 4.733 -1.44l.246 .036a6 6 0 0 1 3.364 10.008l-.18 .185l-.048 .041l-7.45 7.379a1 1 0 0 1 -1.313 .082l-.094 -.082l-7.493 -7.422a6 6 0 0 1 3.176 -10.215z" transform="translate(616.0, 340.0) scale(2.0)"/></g><text x="640" y="410" fill="#FFF" font-family="'Helvetica Neue', Arial, sans-serif" font-size="14" font-weight="bold" text-anchor="middle">Customer</text><text x="640" y="428" fill="#FFF" font-family="'Helvetica Neue', Arial, sans-serif" font-size="14" font-weight="bold" text-anchor="middle">Loyalty</text><text x="640" y="446" fill="#FFF" fill-opacity=".8" font-family="'Helvetica Neue', Arial, sans-serif" font-size="12" text-anchor="middle">Programme</text><circle cx="260" cy="260" r="55" fill="#FFF" stroke="#1A3A5C" stroke-width="3" filter="url(#nodeShadow)"/><g fill="#1A3A5C"><path d="M17 3.34a10 10 0 1 1 -15 8.66l.005 -.324a10 10 0 0 1 14.995 -8.336zm-5 2.66a1 1 0 0 0 -1 1a3 3 0 1 0 0 6v2a1.024 1.024 0 0 1 -.866 -.398l-.068 -.101a1 1 0 0 0 -1.732 .998a3 3 0 0 0 2.505 1.5h.161a1 1 0 0 0 .883 .994l.117 .007a1 1 0 0 0 1 -1l.176 -.005a3 3 0 0 0 -.176 -5.995v-2c.358 -.012 .671 .14 .866 .398l.068 .101a1 1 0 0 0 1.732 -.998a3 3 0 0 0 -2.505 -1.501h-.161a1 1 0 0 0 -1 -1zm1 7a1 1 0 0 1 0 2v-2zm-2 -4v2a1 1 0 0 1 0 -2z" transform="translate(238.0, 228.0) scale(1.8333333333333333)"/></g><text x="260" y="295" fill="#1A3A5C" font-family="'Helvetica Neue', Arial, sans-serif" font-size="11" font-weight="bold" text-anchor="middle">RELATIONSHIPS</text><text x="260" y="335" fill="#1A3A5C" font-family="'Helvetica Neue', Arial, sans-serif" font-size="16" font-weight="bold" text-anchor="middle">Build Long-term</text><text x="260" y="355" fill="#1A3A5C" font-family="'Helvetica Neue', Arial, sans-serif" font-size="16" font-weight="bold" text-anchor="middle">Relationships</text><text x="260" y="375" fill="#5D6D7E" font-family="'Helvetica Neue', Arial, sans-serif" font-size="14" text-anchor="middle">→ Increase profits</text><circle cx="1020" cy="260" r="55" fill="#FFF" stroke="#E8A838" stroke-width="3" filter="url(#nodeShadow)"/><g fill="#E8A838"><path d="M12.01 2.011a3.2 3.2 0 0 1 2.113 .797l.154 .145l.698 .698a1.2 1.2 0 0 0 .71 .341l.135 .008h1a3.2 3.2 0 0 1 3.195 3.018l.005 .182v1c0 .27 .092 .533 .258 .743l.09 .1l.697 .698a3.2 3.2 0 0 1 .147 4.382l-.145 .154l-.698 .698a1.2 1.2 0 0 0 -.341 .71l-.008 .135v1a3.2 3.2 0 0 1 -3.018 3.195l-.182 .005h-1a1.2 1.2 0 0 0 -.743 .258l-.1 .09l-.698 .697a3.2 3.2 0 0 1 -4.382 .147l-.154 -.145l-.698 -.698a1.2 1.2 0 0 0 -.71 -.341l-.135 -.008h-1a3.2 3.2 0 0 1 -3.195 -3.018l-.005 -.182v-1a1.2 1.2 0 0 0 -.258 -.743l-.09 -.1l-.697 -.698a3.2 3.2 0 0 1 -.147 -4.382l.145 -.154l.698 -.698a1.2 1.2 0 0 0 .341 -.71l.008 -.135v-1l.005 -.182a3.2 3.2 0 0 1 3.013 -3.013l.182 -.005h1a1.2 1.2 0 0 0 .743 -.258l.1 -.09l.698 -.697a3.2 3.2 0 0 1 2.269 -.944z" transform="translate(998.0, 228.0) scale(1.8333333333333333)"/></g><text x="1020" y="295" fill="#E8A838" font-family="'Helvetica Neue', Arial, sans-serif" font-size="11" font-weight="bold" text-anchor="middle">LOYALTY</text><text x="1020" y="335" fill="#E8A838" font-family="'Helvetica Neue', Arial, sans-serif" font-size="16" font-weight="bold" text-anchor="middle">Increase Customer</text><text x="1020" y="355" fill="#E8A838" font-family="'Helvetica Neue', Arial, sans-serif" font-size="16" font-weight="bold" text-anchor="middle">Loyalty</text><text x="1020" y="375" fill="#5D6D7E" font-family="'Helvetica Neue', Arial, sans-serif" font-size="14" text-anchor="middle">15% → 30%+ repeat rate</text><circle cx="260" cy="520" r="55" fill="#FFF" stroke="#2D8A4E" stroke-width="3" filter="url(#nodeShadow)"/><g fill="#2D8A4E"><path d="M9.883 2.207a1.9 1.9 0 0 1 2.087 1.522l.025 .167l.005 .104v7a1 1 0 0 0 .883 .993l.117 .007h6.8a2 2 0 0 1 2 2a1 1 0 0 1 -.026 .226a10 10 0 1 1 -12.27 -11.933l.27 -.067l.11 -.02z" transform="translate(238.0, 488.0) scale(1.8333333333333333)"/><path d="M14 3.5v5.5a1 1 0 0 0 1 1h5.5a1 1 0 0 0 .943 -1.332a10 10 0 0 0 -6.11 -6.111a1 1 0 0 0 -1.333 .943z" transform="translate(238.0, 488.0) scale(1.8333333333333333)"/></g><text x="260" y="555" fill="#2D8A4E" font-family="'Helvetica Neue', Arial, sans-serif" font-size="11" font-weight="bold" text-anchor="middle">PROFILING</text><text x="260" y="595" fill="#2D8A4E" font-family="'Helvetica Neue', Arial, sans-serif" font-size="16" font-weight="bold" text-anchor="middle">Accurate Buyer</text><text x="260" y="615" fill="#2D8A4E" font-family="'Helvetica Neue', Arial, sans-serif" font-size="16" font-weight="bold" text-anchor="middle">Profiling</text><text x="260" y="635" fill="#5D6D7E" font-family="'Helvetica Neue', Arial, sans-serif" font-size="14" text-anchor="middle">→ Data-driven decisions</text><circle cx="1020" cy="520" r="55" fill="#FFF" stroke="#1A3A5C" stroke-width="3" filter="url(#nodeShadow)"/><g fill="#1A3A5C"><path d="M12 2a5 5 0 1 1 -5 5l.005 -.217a5 5 0 0 1 4.995 -4.783z" transform="translate(998.0, 488.0) scale(1.8333333333333333)"/><path d="M14 14a5 5 0 0 1 5 5v1a2 2 0 0 1 -2 2h-10a2 2 0 0 1 -2 -2v-1a5 5 0 0 1 5 -5h4z" transform="translate(998.0, 488.0) scale(1.8333333333333333)"/></g><text x="1020" y="555" fill="#1A3A5C" font-family="'Helvetica Neue', Arial, sans-serif" font-size="11" font-weight="bold" text-anchor="middle">ENGAGEMENT</text><text x="1020" y="595" fill="#1A3A5C" font-family="'Helvetica Neue', Arial, sans-serif" font-size="16" font-weight="bold" text-anchor="middle">Staff</text><text x="1020" y="615" fill="#1A3A5C" font-family="'Helvetica Neue', Arial, sans-serif" font-size="16" font-weight="bold" text-anchor="middle">Engagement</text><text x="1020" y="635" fill="#5D6D7E" font-family="'Helvetica Neue', Arial, sans-serif" font-size="14" text-anchor="middle">→ Service excellence</text><path fill="#F4F6F8" stroke="#D5DDE5" stroke-width="1" d="M498,550 H782 A18,18 0 0 1 800,568 V568 A18,18 0 0 1 782,586 H498 A18,18 0 0 1 480,568 V568 A18,18 0 0 1 498,550 Z"/><g fill="#E8A838"><path d="M17 3.34a10 10 0 1 1 -15 8.66l.005 -.324a10 10 0 0 1 14.995 -8.336zm-5 2.66a1 1 0 0 0 -1 1a3 3 0 1 0 0 6v2a1.024 1.024 0 0 1 -.866 -.398l-.068 -.101a1 1 0 0 0 -1.732 .998a3 3 0 0 0 2.505 1.5h.161a1 1 0 0 0 .883 .994l.117 .007a1 1 0 0 0 1 -1l.176 -.005a3 3 0 0 0 -.176 -5.995v-2c.358 -.012 .671 .14 .866 .398l.068 .101a1 1 0 0 0 1.732 -.998a3 3 0 0 0 -2.505 -1.501h-.161a1 1 0 0 0 -1 -1zm1 7a1 1 0 0 1 0 2v-2zm-2 -4v2a1 1 0 0 1 0 -2z" transform="translate(495.0, 557.0) scale(0.8333333333333334)"/></g><text x="525" y="573" fill="#2C3E50" font-family="'Helvetica Neue', Arial, sans-serif" font-size="14">Cost model:</text><text x="612" y="573" fill="#1A3A5C" font-family="'Helvetica Neue', Arial, sans-serif" font-size="14" font-weight="bold">50/50 shared with head office</text><line x1="60" x2="1220" y1="690" y2="690" stroke="#D5DDE5" stroke-width=".5"/><text x="60" y="710" fill="#95A5A6" font-family="'Helvetica Neue', Arial, sans-serif" font-size="11">Source: Kimsoong Customer Services Department — Strategic Framework</text><text x="1100" y="710" fill="#95A5A6" font-family="'Helvetica Neue', Arial, sans-serif" font-size="10">CONFIDENTIAL</text><text x="1220" y="710" fill="#95A5A6" font-family="'Helvetica Neue', Arial, sans-serif" font-size="11" text-anchor="end">7</text></svg>