<svg xmlns="http://www.w3.org/2000/svg" width="1280" height="720" viewBox="0 0 1280 720"><defs><linearGradient id="titleGradient" x1="0%" x2="100%" y1="0%" y2="0%"><stop offset="0%" stop-color="#5B8DEF"/><stop offset="50%" stop-color="#A26BFA"/><stop offset="100%" stop-color="#3DDDFC"/></linearGradient><linearGradient id="bgOverlay" x1="0%" x2="0%" y1="0%" y2="100%"><stop offset="0%" stop-color="#0A0E27" stop-opacity=".6"/><stop offset="100%" stop-color="#0A0E27" stop-opacity=".78"/></linearGradient><linearGradient id="hubGrad" x1="0%" x2="100%" y1="0%" y2="100%"><stop offset="0%" stop-color="#5B8DEF"/><stop offset="50%" stop-color="#A26BFA"/><stop offset="100%" stop-color="#3DDDFC"/></linearGradient><linearGradient id="spokeGlass" x1="0%" x2="0%" y1="0%" y2="100%"><stop offset="0%" stop-color="#1A2150" stop-opacity=".85"/><stop offset="100%" stop-color="#1A2150" stop-opacity=".5"/></linearGradient><linearGradient id="glassEdge" x1="0%" x2="100%" y1="0%" y2="0%"><stop offset="0%" stop-color="#FFF" stop-opacity="0"/><stop offset="50%" stop-color="#FFF" stop-opacity=".3"/><stop offset="100%" stop-color="#FFF" stop-opacity="0"/></linearGradient></defs><g id="bg"><rect width="1280" height="720" fill="#0A0E27"/><image width="1280" height="720" x="0" y="0" href="../images/07_context_sphere.png" preserveAspectRatio="xMidYMid slice"/><rect width="1280" height="720" x="0" y="0" fill="url(#bgOverlay)"/></g><g id="header"><rect width="6" height="32" x="60" y="50" fill="url(#titleGradient)" rx="3"/><text x="80" y="76" fill="#E8ECFF" font-family="&quot;Microsoft YaHei&quot;, &quot;PingFang SC&quot;, sans-serif" font-size="34" font-weight="900">上下文,才是 Agent 真正的&quot;权重&quot;</text><text x="80" y="108" fill="#A8B0D0" font-family="&quot;Microsoft YaHei&quot;, &quot;PingFang SC&quot;, sans-serif" font-size="14" font-weight="600" letter-spacing="3">CONTEXT ENGINEERING · 1 CORE + 6 CAPABILITIES</text></g><g id="orbit-rings"><circle cx="640" cy="410" r="160" fill="none" stroke="#FFF" stroke-opacity=".08" stroke-width="1"/><circle cx="640" cy="410" r="240" fill="none" stroke="#FFF" stroke-dasharray="4 6" stroke-opacity=".06" stroke-width="1"/></g><g id="spoke-lines"><line x1="640" x2="640" y1="410" y2="180" stroke="#5B8DEF" stroke-dasharray="6 6" stroke-opacity=".4" stroke-width="2"/><line x1="640" x2="870" y1="410" y2="270" stroke="#A26BFA" stroke-dasharray="6 6" stroke-opacity=".4" stroke-width="2"/><line x1="640" x2="870" y1="410" y2="540" stroke="#3DDDFC" stroke-dasharray="6 6" stroke-opacity=".4" stroke-width="2"/><line x1="640" x2="640" y1="410" y2="640" stroke="#4ADE80" stroke-dasharray="6 6" stroke-opacity=".4" stroke-width="2"/><line x1="640" x2="410" y1="410" y2="540" stroke="#3DDDFC" stroke-dasharray="6 6" stroke-opacity=".4" stroke-width="2"/><line x1="640" x2="410" y1="410" y2="270" stroke="#A26BFA" stroke-dasharray="6 6" stroke-opacity=".4" stroke-width="2"/></g><g id="hub"><circle cx="640" cy="410" r="92" fill="#5B8DEF" fill-opacity=".2"/><circle cx="640" cy="410" r="78" fill="url(#hubGrad)"/><circle cx="640" cy="410" r="68" fill="none" stroke="#FFF" stroke-opacity=".4" stroke-width="1"/><use width="48" height="48" x="616" y="380" fill="#FFF" data-icon="phosphor-duotone/cube"/><text x="640" y="455" fill="#FFF" font-family="&quot;Microsoft YaHei&quot;, &quot;PingFang SC&quot;, sans-serif" font-size="16" font-weight="900" text-anchor="middle">CONTEXT</text><text x="640" y="474" fill="#E8ECFF" font-family="&quot;Microsoft YaHei&quot;, &quot;PingFang SC&quot;, sans-serif" font-size="12" font-weight="600" letter-spacing="3" text-anchor="middle">ENGINEERING</text></g><g id="spoke-retrieval"><rect width="240" height="80" x="520" y="140" fill="url(#spokeGlass)" stroke="#5B8DEF" stroke-opacity=".55" stroke-width="1" rx="14"/><rect width="204" height="1" x="538" y="141" fill="url(#glassEdge)"/><rect width="4" height="32" x="520" y="164" fill="#5B8DEF" rx="2"/><rect width="44" height="44" x="540" y="156" fill="#5B8DEF" fill-opacity=".2" rx="10"/><use width="28" height="28" x="548" y="164" fill="#5B8DEF" data-icon="phosphor-duotone/magnifying-glass"/><text x="600" y="174" fill="#E8ECFF" font-family="&quot;Microsoft YaHei&quot;, &quot;PingFang SC&quot;, sans-serif" font-size="17" font-weight="800">检索</text><text x="600" y="200" fill="#A8B0D0" font-family="&quot;Microsoft YaHei&quot;, &quot;PingFang SC&quot;, sans-serif" font-size="12" font-weight="500">RAG · 向量召回 · BM25 混排</text></g><g id="spoke-rerank"><rect width="240" height="80" x="750" y="230" fill="url(#spokeGlass)" stroke="#A26BFA" stroke-opacity=".55" stroke-width="1" rx="14"/><rect width="204" height="1" x="768" y="231" fill="url(#glassEdge)"/><rect width="4" height="32" x="750" y="254" fill="#A26BFA" rx="2"/><rect width="44" height="44" x="770" y="246" fill="#A26BFA" fill-opacity=".2" rx="10"/><use width="28" height="28" x="778" y="254" fill="#A26BFA" data-icon="phosphor-duotone/funnel"/><text x="830" y="264" fill="#E8ECFF" font-family="&quot;Microsoft YaHei&quot;, &quot;PingFang SC&quot;, sans-serif" font-size="17" font-weight="800">重排</text><text x="830" y="290" fill="#A8B0D0" font-family="&quot;Microsoft YaHei&quot;, &quot;PingFang SC&quot;, sans-serif" font-size="12" font-weight="500">Reranker · Top-K 精筛</text></g><g id="spoke-truncate"><rect width="240" height="80" x="750" y="500" fill="url(#spokeGlass)" stroke="#3DDDFC" stroke-opacity=".55" stroke-width="1" rx="14"/><rect width="204" height="1" x="768" y="501" fill="url(#glassEdge)"/><rect width="4" height="32" x="750" y="524" fill="#3DDDFC" rx="2"/><rect width="44" height="44" x="770" y="516" fill="#3DDDFC" fill-opacity=".2" rx="10"/><use width="28" height="28" x="778" y="524" fill="#3DDDFC" data-icon="phosphor-duotone/scales"/><text x="830" y="534" fill="#E8ECFF" font-family="&quot;Microsoft YaHei&quot;, &quot;PingFang SC&quot;, sans-serif" font-size="17" font-weight="800">截断</text><text x="830" y="560" fill="#A8B0D0" font-family="&quot;Microsoft YaHei&quot;, &quot;PingFang SC&quot;, sans-serif" font-size="12" font-weight="500">Token 预算 · 关键信息优先</text></g><g id="spoke-memory"><rect width="240" height="80" x="520" y="600" fill="url(#spokeGlass)" stroke="#4ADE80" stroke-opacity=".5" stroke-width="1" rx="14"/><rect width="204" height="1" x="538" y="601" fill="url(#glassEdge)"/><rect width="4" height="32" x="520" y="624" fill="#4ADE80" rx="2"/><rect width="44" height="44" x="540" y="616" fill="#4ADE80" fill-opacity=".2" rx="10"/><use width="28" height="28" x="548" y="624" fill="#4ADE80" data-icon="phosphor-duotone/database"/><text x="600" y="634" fill="#E8ECFF" font-family="&quot;Microsoft YaHei&quot;, &quot;PingFang SC&quot;, sans-serif" font-size="17" font-weight="800">记忆</text><text x="600" y="660" fill="#A8B0D0" font-family="&quot;Microsoft YaHei&quot;, &quot;PingFang SC&quot;, sans-serif" font-size="12" font-weight="500">长 / 短期 · 会话状态</text></g><g id="spoke-tools"><rect width="240" height="80" x="290" y="500" fill="url(#spokeGlass)" stroke="#3DDDFC" stroke-opacity=".55" stroke-width="1" rx="14"/><rect width="204" height="1" x="308" y="501" fill="url(#glassEdge)"/><rect width="4" height="32" x="290" y="524" fill="#3DDDFC" rx="2"/><rect width="44" height="44" x="310" y="516" fill="#3DDDFC" fill-opacity=".2" rx="10"/><use width="28" height="28" x="318" y="524" fill="#3DDDFC" data-icon="phosphor-duotone/gear"/><text x="370" y="534" fill="#E8ECFF" font-family="&quot;Microsoft YaHei&quot;, &quot;PingFang SC&quot;, sans-serif" font-size="17" font-weight="800">工具说明</text><text x="370" y="560" fill="#A8B0D0" font-family="&quot;Microsoft YaHei&quot;, &quot;PingFang SC&quot;, sans-serif" font-size="12" font-weight="500">Tool schema · 示例描述</text></g><g id="spoke-system"><rect width="240" height="80" x="290" y="230" fill="url(#spokeGlass)" stroke="#A26BFA" stroke-opacity=".55" stroke-width="1" rx="14"/><rect width="204" height="1" x="308" y="231" fill="url(#glassEdge)"/><rect width="4" height="32" x="290" y="254" fill="#A26BFA" rx="2"/><rect width="44" height="44" x="310" y="246" fill="#A26BFA" fill-opacity=".2" rx="10"/><use width="28" height="28" x="318" y="254" fill="#A26BFA" data-icon="phosphor-duotone/code-block"/><text x="370" y="264" fill="#E8ECFF" font-family="&quot;Microsoft YaHei&quot;, &quot;PingFang SC&quot;, sans-serif" font-size="17" font-weight="800">系统提示</text><text x="370" y="290" fill="#A8B0D0" font-family="&quot;Microsoft YaHei&quot;, &quot;PingFang SC&quot;, sans-serif" font-size="12" font-weight="500">Persona · 输出格式 · 安全</text></g><g id="footer"><text x="60" y="694" fill="#6B7299" font-family="&quot;Microsoft YaHei&quot;, &quot;PingFang SC&quot;, sans-serif" font-size="13" font-weight="600">上下文工程 · 让 LLM 知道&quot;该看什么&quot;</text><text x="1220" y="694" fill="#6B7299" font-family="&quot;Microsoft YaHei&quot;, &quot;PingFang SC&quot;, sans-serif" font-size="13" font-weight="600" text-anchor="end">07 / 12</text></g></svg>