<svg xmlns="http://www.w3.org/2000/svg" width="1280" height="720" viewBox="0 0 1280 720"><defs><linearGradient id="titleGradient" x1="0%" x2="100%" y1="0%" y2="0%"><stop offset="0%" stop-color="#5B8DEF"/><stop offset="50%" stop-color="#A26BFA"/><stop offset="100%" stop-color="#3DDDFC"/></linearGradient><radialGradient id="bgGlowA" cx="20%" cy="30%" r="55%"><stop offset="0%" stop-color="#5B8DEF" stop-opacity=".16"/><stop offset="100%" stop-color="#5B8DEF" stop-opacity="0"/></radialGradient><radialGradient id="bgGlowB" cx="80%" cy="70%" r="55%"><stop offset="0%" stop-color="#A26BFA" stop-opacity=".16"/><stop offset="100%" stop-color="#A26BFA" stop-opacity="0"/></radialGradient><linearGradient id="areaAcc" x1="0%" x2="0%" y1="0%" y2="100%"><stop offset="0%" stop-color="#4ADE80" stop-opacity=".4"/><stop offset="100%" stop-color="#4ADE80" stop-opacity="0"/></linearGradient><linearGradient id="areaCost" x1="0%" x2="0%" y1="0%" y2="100%"><stop offset="0%" stop-color="#FB7185" stop-opacity=".35"/><stop offset="100%" stop-color="#FB7185" stop-opacity="0"/></linearGradient><linearGradient id="chartPanel" x1="0%" x2="0%" y1="0%" y2="100%"><stop offset="0%" stop-color="#1A2150" stop-opacity=".5"/><stop offset="100%" stop-color="#1A2150" stop-opacity=".18"/></linearGradient><linearGradient id="glassEdge" x1="0%" x2="100%" y1="0%" y2="0%"><stop offset="0%" stop-color="#FFF" stop-opacity="0"/><stop offset="50%" stop-color="#FFF" stop-opacity=".3"/><stop offset="100%" stop-color="#FFF" stop-opacity="0"/></linearGradient></defs><g id="bg"><rect width="1280" height="720" fill="#0A0E27"/><rect width="1280" height="720" fill="url(#bgGlowA)"/><rect width="1280" height="720" fill="url(#bgGlowB)"/></g><g id="header"><rect width="6" height="32" x="60" y="50" fill="url(#titleGradient)" rx="3"/><text x="80" y="76" fill="#E8ECFF" font-family="&quot;Microsoft YaHei&quot;, &quot;PingFang SC&quot;, sans-serif" font-size="34" font-weight="900">持续优化的真实曲线 — <tspan fill="#4ADE80">准确率 ↑</tspan> <tspan fill="#FB7185">成本 ↓</tspan></text><text x="80" y="108" fill="#A8B0D0" font-family="&quot;Microsoft YaHei&quot;, &quot;PingFang SC&quot;, sans-serif" font-size="14" font-weight="600" letter-spacing="3">UPLINE TO PRODUCTION · 12-WEEK TREND</text></g><g id="chart-panel-bg"><rect width="1100" height="475" x="100" y="135" fill="url(#chartPanel)" stroke="#FFF" stroke-opacity=".12" stroke-width="1" rx="20"/><rect width="1064" height="1" x="118" y="136" fill="url(#glassEdge)"/></g><g id="chartArea"><line x1="140" x2="1180" y1="560" y2="560" stroke="#FFF" stroke-opacity=".16" stroke-width="1"/><line x1="140" x2="1180" y1="462" y2="462" stroke="#FFF" stroke-dasharray="3 5" stroke-opacity=".08" stroke-width="1"/><line x1="140" x2="1180" y1="365" y2="365" stroke="#FFF" stroke-dasharray="3 5" stroke-opacity=".08" stroke-width="1"/><line x1="140" x2="1180" y1="267" y2="267" stroke="#FFF" stroke-dasharray="3 5" stroke-opacity=".08" stroke-width="1"/><line x1="140" x2="1180" y1="170" y2="170" stroke="#FFF" stroke-dasharray="3 5" stroke-opacity=".08" stroke-width="1"/><line x1="140" x2="140" y1="170" y2="560" stroke="#FFF" stroke-opacity=".16" stroke-width="1"/><line x1="1180" x2="1180" y1="170" y2="560" stroke="#FFF" stroke-opacity=".16" stroke-width="1"/><text x="128" y="565" fill="#A8B0D0" font-family="&quot;Microsoft YaHei&quot;, &quot;PingFang SC&quot;, sans-serif" font-size="12" font-weight="600" text-anchor="end">60%</text><text x="128" y="467" fill="#A8B0D0" font-family="&quot;Microsoft YaHei&quot;, &quot;PingFang SC&quot;, sans-serif" font-size="12" font-weight="600" text-anchor="end">70%</text><text x="128" y="370" fill="#A8B0D0" font-family="&quot;Microsoft YaHei&quot;, &quot;PingFang SC&quot;, sans-serif" font-size="12" font-weight="600" text-anchor="end">80%</text><text x="128" y="272" fill="#A8B0D0" font-family="&quot;Microsoft YaHei&quot;, &quot;PingFang SC&quot;, sans-serif" font-size="12" font-weight="600" text-anchor="end">90%</text><text x="128" y="175" fill="#A8B0D0" font-family="&quot;Microsoft YaHei&quot;, &quot;PingFang SC&quot;, sans-serif" font-size="12" font-weight="600" text-anchor="end">100%</text><text x="1192" y="565" fill="#A8B0D0" font-family="&quot;Microsoft YaHei&quot;, &quot;PingFang SC&quot;, sans-serif" font-size="12" font-weight="600">¥0</text><text x="1192" y="467" fill="#A8B0D0" font-family="&quot;Microsoft YaHei&quot;, &quot;PingFang SC&quot;, sans-serif" font-size="12" font-weight="600">¥0.35</text><text x="1192" y="370" fill="#A8B0D0" font-family="&quot;Microsoft YaHei&quot;, &quot;PingFang SC&quot;, sans-serif" font-size="12" font-weight="600">¥0.70</text><text x="1192" y="272" fill="#A8B0D0" font-family="&quot;Microsoft YaHei&quot;, &quot;PingFang SC&quot;, sans-serif" font-size="12" font-weight="600">¥1.05</text><text x="1192" y="175" fill="#A8B0D0" font-family="&quot;Microsoft YaHei&quot;, &quot;PingFang SC&quot;, sans-serif" font-size="12" font-weight="600">¥1.40</text><text x="140" y="588" fill="#A8B0D0" font-family="&quot;Microsoft YaHei&quot;, &quot;PingFang SC&quot;, sans-serif" font-size="12" font-weight="600" text-anchor="middle">W1</text><text x="234" y="588" fill="#A8B0D0" font-family="&quot;Microsoft YaHei&quot;, &quot;PingFang SC&quot;, sans-serif" font-size="12" font-weight="600" text-anchor="middle">W2</text><text x="329" y="588" fill="#A8B0D0" font-family="&quot;Microsoft YaHei&quot;, &quot;PingFang SC&quot;, sans-serif" font-size="12" font-weight="600" text-anchor="middle">W3</text><text x="423" y="588" fill="#3DDDFC" font-family="&quot;Microsoft YaHei&quot;, &quot;PingFang SC&quot;, sans-serif" font-size="12" font-weight="700" text-anchor="middle">W4</text><text x="518" y="588" fill="#A8B0D0" font-family="&quot;Microsoft YaHei&quot;, &quot;PingFang SC&quot;, sans-serif" font-size="12" font-weight="600" text-anchor="middle">W5</text><text x="612" y="588" fill="#A8B0D0" font-family="&quot;Microsoft YaHei&quot;, &quot;PingFang SC&quot;, sans-serif" font-size="12" font-weight="600" text-anchor="middle">W6</text><text x="707" y="588" fill="#A8B0D0" font-family="&quot;Microsoft YaHei&quot;, &quot;PingFang SC&quot;, sans-serif" font-size="12" font-weight="600" text-anchor="middle">W7</text><text x="801" y="588" fill="#3DDDFC" font-family="&quot;Microsoft YaHei&quot;, &quot;PingFang SC&quot;, sans-serif" font-size="12" font-weight="700" text-anchor="middle">W8</text><text x="896" y="588" fill="#A8B0D0" font-family="&quot;Microsoft YaHei&quot;, &quot;PingFang SC&quot;, sans-serif" font-size="12" font-weight="600" text-anchor="middle">W9</text><text x="990" y="588" fill="#A8B0D0" font-family="&quot;Microsoft YaHei&quot;, &quot;PingFang SC&quot;, sans-serif" font-size="12" font-weight="600" text-anchor="middle">W10</text><text x="1085" y="588" fill="#3DDDFC" font-family="&quot;Microsoft YaHei&quot;, &quot;PingFang SC&quot;, sans-serif" font-size="12" font-weight="700" text-anchor="middle">W11</text><text x="1180" y="588" fill="#A8B0D0" font-family="&quot;Microsoft YaHei&quot;, &quot;PingFang SC&quot;, sans-serif" font-size="12" font-weight="600" text-anchor="middle">W12</text><line x1="423" x2="423" y1="170" y2="560" stroke="#3DDDFC" stroke-dasharray="4 6" stroke-opacity=".32" stroke-width="1"/><line x1="801" x2="801" y1="170" y2="560" stroke="#3DDDFC" stroke-dasharray="4 6" stroke-opacity=".32" stroke-width="1"/><line x1="1085" x2="1085" y1="170" y2="560" stroke="#3DDDFC" stroke-dasharray="4 6" stroke-opacity=".32" stroke-width="1"/><path fill="url(#areaAcc)" d="M 140,453 L 234,433 L 329,414 L 423,365 L 518,345 L 612,316 L 707,306 L 801,277 L 896,267 L 990,258 L 1085,248 L 1180,244 L 1180,560 L 140,560 Z"/><polyline fill="none" stroke="#4ADE80" stroke-linecap="round" stroke-linejoin="round" stroke-width="3.5" points="140 453 234 433 329 414 423 365 518 345 612 316 707 306 801 277 896 267 990 258 1085 248 1180 244"/><g id="acc-dots"><circle cx="140" cy="453" r="5" fill="#4ADE80" stroke="#0A0E27" stroke-width="2"/><circle cx="234" cy="433" r="5" fill="#4ADE80" stroke="#0A0E27" stroke-width="2"/><circle cx="329" cy="414" r="5" fill="#4ADE80" stroke="#0A0E27" stroke-width="2"/><circle cx="423" cy="365" r="6" fill="#4ADE80" stroke="#0A0E27" stroke-width="2"/><circle cx="518" cy="345" r="5" fill="#4ADE80" stroke="#0A0E27" stroke-width="2"/><circle cx="612" cy="316" r="5" fill="#4ADE80" stroke="#0A0E27" stroke-width="2"/><circle cx="707" cy="306" r="5" fill="#4ADE80" stroke="#0A0E27" stroke-width="2"/><circle cx="801" cy="277" r="6" fill="#4ADE80" stroke="#0A0E27" stroke-width="2"/><circle cx="896" cy="267" r="5" fill="#4ADE80" stroke="#0A0E27" stroke-width="2"/><circle cx="990" cy="258" r="5" fill="#4ADE80" stroke="#0A0E27" stroke-width="2"/><circle cx="1085" cy="248" r="6" fill="#4ADE80" stroke="#0A0E27" stroke-width="2"/><circle cx="1180" cy="244" r="7" fill="#4ADE80" stroke="#0A0E27" stroke-width="2"/></g><path fill="url(#areaCost)" fill-opacity="0" d="M 140,226 L 234,240 L 329,254 L 423,295 L 518,309 L 612,323 L 707,343 L 801,379 L 896,393 L 990,407 L 1085,426 L 1180,443 L 1180,560 L 140,560 Z"/><polyline fill="none" stroke="#FB7185" stroke-linecap="round" stroke-linejoin="round" stroke-width="3.5" points="140 226 234 240 329 254 423 295 518 309 612 323 707 343 801 379 896 393 990 407 1085 426 1180 443"/><g id="cost-dots"><circle cx="140" cy="226" r="5" fill="#FB7185" stroke="#0A0E27" stroke-width="2"/><circle cx="234" cy="240" r="5" fill="#FB7185" stroke="#0A0E27" stroke-width="2"/><circle cx="329" cy="254" r="5" fill="#FB7185" stroke="#0A0E27" stroke-width="2"/><circle cx="423" cy="295" r="5" fill="#FB7185" stroke="#0A0E27" stroke-width="2"/><circle cx="518" cy="309" r="5" fill="#FB7185" stroke="#0A0E27" stroke-width="2"/><circle cx="612" cy="323" r="5" fill="#FB7185" stroke="#0A0E27" stroke-width="2"/><circle cx="707" cy="343" r="5" fill="#FB7185" stroke="#0A0E27" stroke-width="2"/><circle cx="801" cy="379" r="5" fill="#FB7185" stroke="#0A0E27" stroke-width="2"/><circle cx="896" cy="393" r="5" fill="#FB7185" stroke="#0A0E27" stroke-width="2"/><circle cx="990" cy="407" r="5" fill="#FB7185" stroke="#0A0E27" stroke-width="2"/><circle cx="1085" cy="426" r="5" fill="#FB7185" stroke="#0A0E27" stroke-width="2"/><circle cx="1180" cy="443" r="7" fill="#FB7185" stroke="#0A0E27" stroke-width="2"/></g><g id="annot-w4"><rect width="146" height="22" x="350" y="148" fill="#1A2150" fill-opacity=".85" stroke="#3DDDFC" stroke-opacity=".5" stroke-width="1" rx="11"/><text x="423" y="164" fill="#3DDDFC" font-family="&quot;Microsoft YaHei&quot;, &quot;PingFang SC&quot;, sans-serif" font-size="12" font-weight="700" text-anchor="middle">W4 · 引入 reranker</text></g><g id="annot-w8"><rect width="146" height="22" x="728" y="148" fill="#1A2150" fill-opacity=".85" stroke="#3DDDFC" stroke-opacity=".5" stroke-width="1" rx="11"/><text x="801" y="164" fill="#3DDDFC" font-family="&quot;Microsoft YaHei&quot;, &quot;PingFang SC&quot;, sans-serif" font-size="12" font-weight="700" text-anchor="middle">W8 · 引入 fallback</text></g><g id="annot-w11"><rect width="146" height="22" x="1012" y="148" fill="#1A2150" fill-opacity=".85" stroke="#3DDDFC" stroke-opacity=".5" stroke-width="1" rx="11"/><text x="1085" y="164" fill="#3DDDFC" font-family="&quot;Microsoft YaHei&quot;, &quot;PingFang SC&quot;, sans-serif" font-size="12" font-weight="700" text-anchor="middle">W11 · 引入缓存</text></g></g><g id="legend"><rect width="280" height="44" x="100" y="630" fill="#1A2150" fill-opacity=".65" stroke="#FFF" stroke-opacity=".16" stroke-width="1" rx="10"/><line x1="120" x2="148" y1="652" y2="652" stroke="#4ADE80" stroke-linecap="round" stroke-width="3.5"/><circle cx="134" cy="652" r="5" fill="#4ADE80" stroke="#0A0E27" stroke-width="2"/><text x="162" y="657" fill="#E8ECFF" font-family="&quot;Microsoft YaHei&quot;, &quot;PingFang SC&quot;, sans-serif" font-size="14" font-weight="700">任务成功率(左轴)</text><rect width="280" height="44" x="395" y="630" fill="#1A2150" fill-opacity=".65" stroke="#FFF" stroke-opacity=".16" stroke-width="1" rx="10"/><line x1="415" x2="443" y1="652" y2="652" stroke="#FB7185" stroke-linecap="round" stroke-width="3.5"/><circle cx="429" cy="652" r="5" fill="#FB7185" stroke="#0A0E27" stroke-width="2"/><text x="457" y="657" fill="#E8ECFF" font-family="&quot;Microsoft YaHei&quot;, &quot;PingFang SC&quot;, sans-serif" font-size="14" font-weight="700">单次成本(右轴)</text><rect width="510" height="44" x="690" y="630" fill="#1A2150" fill-opacity=".65" stroke="#3DDDFC" stroke-opacity=".4" stroke-width="1" rx="10"/><text x="710" y="657" fill="#A8B0D0" font-family="&quot;Microsoft YaHei&quot;, &quot;PingFang SC&quot;, sans-serif" font-size="14" font-weight="600"><tspan fill="#3DDDFC" font-weight="800">▲</tspan> 准确率 71% → 92.4% · 成本 ¥1.20 → ¥0.42</text></g><g id="footer"><text x="60" y="700" fill="#6B7299" font-family="&quot;Microsoft YaHei&quot;, &quot;PingFang SC&quot;, sans-serif" font-size="13" font-weight="600">12 周指标趋势 · 来源:内部 Agent 平台监控</text><text x="1220" y="700" fill="#6B7299" font-family="&quot;Microsoft YaHei&quot;, &quot;PingFang SC&quot;, sans-serif" font-size="13" font-weight="600" text-anchor="end">09 / 12</text></g></svg>