<svg xmlns="http://www.w3.org/2000/svg" width="1280" height="720" viewBox="0 0 1280 720"><defs><linearGradient id="titleGradient" x1="0%" x2="100%" y1="0%" y2="0%"><stop offset="0%" stop-color="#5B8DEF"/><stop offset="50%" stop-color="#A26BFA"/><stop offset="100%" stop-color="#3DDDFC"/></linearGradient><linearGradient id="bgOverlay" x1="0%" x2="0%" y1="0%" y2="100%"><stop offset="0%" stop-color="#0A0E27" stop-opacity=".6"/><stop offset="100%" stop-color="#0A0E27" stop-opacity=".78"/></linearGradient><linearGradient id="cardGlass" x1="0%" x2="0%" y1="0%" y2="100%"><stop offset="0%" stop-color="#1A2150" stop-opacity=".82"/><stop offset="100%" stop-color="#1A2150" stop-opacity=".5"/></linearGradient><linearGradient id="headRose" x1="0%" x2="100%" y1="0%" y2="100%"><stop offset="0%" stop-color="#FB7185" stop-opacity=".92"/><stop offset="100%" stop-color="#FB7185" stop-opacity=".45"/></linearGradient><linearGradient id="headAmber" x1="0%" x2="100%" y1="0%" y2="100%"><stop offset="0%" stop-color="#F59E0B" stop-opacity=".92"/><stop offset="100%" stop-color="#F59E0B" stop-opacity=".45"/></linearGradient><linearGradient id="headPurple" x1="0%" x2="100%" y1="0%" y2="100%"><stop offset="0%" stop-color="#A26BFA" stop-opacity=".92"/><stop offset="100%" stop-color="#A26BFA" stop-opacity=".45"/></linearGradient><linearGradient id="headCyan" x1="0%" x2="100%" y1="0%" y2="100%"><stop offset="0%" stop-color="#3DDDFC" stop-opacity=".85"/><stop offset="100%" stop-color="#3DDDFC" stop-opacity=".4"/></linearGradient><linearGradient id="glassEdge" x1="0%" x2="100%" y1="0%" y2="0%"><stop offset="0%" stop-color="#FFF" stop-opacity="0"/><stop offset="50%" stop-color="#FFF" stop-opacity=".35"/><stop offset="100%" stop-color="#FFF" stop-opacity="0"/></linearGradient></defs><g id="bg"><rect width="1280" height="720" fill="#0A0E27"/><image width="1280" height="720" x="0" y="0" href="../images/10_failure_glow.png" preserveAspectRatio="xMidYMid slice"/><rect width="1280" height="720" x="0" y="0" fill="url(#bgOverlay)"/></g><g id="header"><rect width="6" height="32" x="60" y="50" fill="url(#titleGradient)" rx="3"/><text x="80" y="76" fill="#E8ECFF" font-family="&quot;Microsoft YaHei&quot;, &quot;PingFang SC&quot;, sans-serif" font-size="34" font-weight="900">这四类失败,你最先会遇到哪个</text><text x="80" y="108" fill="#A8B0D0" font-family="&quot;Microsoft YaHei&quot;, &quot;PingFang SC&quot;, sans-serif" font-size="14" font-weight="600" letter-spacing="3">FAILURE MODES · FREQUENCY × DETECTION DIFFICULTY</text></g><g id="axis-frame"><rect width="540" height="22" x="80" y="125" fill="#FB7185" fill-opacity=".18" rx="11"/><text x="350" y="141" fill="#FB7185" font-family="&quot;Microsoft YaHei&quot;, &quot;PingFang SC&quot;, sans-serif" font-size="11" font-weight="800" letter-spacing="3" text-anchor="middle">SHALLOW · 表面易识</text><rect width="540" height="22" x="660" y="125" fill="#A26BFA" fill-opacity=".2" rx="11"/><text x="930" y="141" fill="#A26BFA" font-family="&quot;Microsoft YaHei&quot;, &quot;PingFang SC&quot;, sans-serif" font-size="11" font-weight="800" letter-spacing="3" text-anchor="middle">DEEP · 隐蔽难定位</text><rect width="22" height="220" x="38" y="158" fill="#FFF" fill-opacity=".06" rx="11"/><text x="49" y="268" fill="#A8B0D0" font-family="&quot;Microsoft YaHei&quot;, &quot;PingFang SC&quot;, sans-serif" font-size="11" font-weight="800" letter-spacing="2" text-anchor="middle" transform="rotate(-90, 49, 268)">HIGH · 高频</text><rect width="22" height="220" x="38" y="402" fill="#FFF" fill-opacity=".06" rx="11"/><text x="49" y="512" fill="#A8B0D0" font-family="&quot;Microsoft YaHei&quot;, &quot;PingFang SC&quot;, sans-serif" font-size="11" font-weight="800" letter-spacing="2" text-anchor="middle" transform="rotate(-90, 49, 512)">LOW · 低频</text></g><g id="q-tool-errors"><rect width="540" height="232" x="80" y="158" fill="url(#cardGlass)" stroke="#FB7185" stroke-opacity=".35" stroke-width="1" rx="16"/><rect width="504" height="1" x="98" y="159" fill="url(#glassEdge)"/><path fill="url(#headRose)" d="M 94 158 h 512 a 14 14 0 0 1 14 14 v 46 h -540 v -46 a 14 14 0 0 1 14 -14 Z"/><circle cx="116" cy="188" r="18" fill="#0A0E27" fill-opacity=".5"/><use width="32" height="32" x="100" y="172" fill="#FB7185" data-icon="phosphor-duotone/bug"/><text x="144" y="194" fill="#FFF" font-family="&quot;Microsoft YaHei&quot;, &quot;PingFang SC&quot;, sans-serif" font-size="19" font-weight="900">工具错误</text><rect width="120" height="28" x="490" y="172" fill="#FFF" fill-opacity=".22" rx="14"/><text x="550" y="191" fill="#FFF" font-family="&quot;Microsoft YaHei&quot;, &quot;PingFang SC&quot;, sans-serif" font-size="11" font-weight="800" letter-spacing="2" text-anchor="middle">VALIDATE EARLY</text><g id="q1-items"><circle cx="106" cy="248" r="6" fill="#FB7185"/><text x="122" y="253" fill="#E8ECFF" font-family="&quot;Microsoft YaHei&quot;, &quot;PingFang SC&quot;, sans-serif" font-size="15" font-weight="700">JSON schema 不匹配</text><text x="122" y="274" fill="#A8B0D0" font-family="&quot;Microsoft YaHei&quot;, &quot;PingFang SC&quot;, sans-serif" font-size="13" font-weight="400">字段缺失 / 类型错位 / enum 写飞</text><circle cx="106" cy="304" r="6" fill="#FB7185"/><text x="122" y="309" fill="#E8ECFF" font-family="&quot;Microsoft YaHei&quot;, &quot;PingFang SC&quot;, sans-serif" font-size="15" font-weight="700">参数幻觉</text><text x="122" y="330" fill="#A8B0D0" font-family="&quot;Microsoft YaHei&quot;, &quot;PingFang SC&quot;, sans-serif" font-size="13" font-weight="400">不存在的参数 / 值越界 / 单位混用</text><circle cx="106" cy="360" r="6" fill="#FB7185"/><text x="122" y="365" fill="#E8ECFF" font-family="&quot;Microsoft YaHei&quot;, &quot;PingFang SC&quot;, sans-serif" font-size="15" font-weight="700">超时无回退</text></g></g><g id="q-cost-overrun"><rect width="540" height="232" x="660" y="158" fill="url(#cardGlass)" stroke="#A26BFA" stroke-opacity=".4" stroke-width="1" rx="16"/><rect width="504" height="1" x="678" y="159" fill="url(#glassEdge)"/><path fill="url(#headPurple)" d="M 674 158 h 512 a 14 14 0 0 1 14 14 v 46 h -540 v -46 a 14 14 0 0 1 14 -14 Z"/><circle cx="696" cy="188" r="18" fill="#0A0E27" fill-opacity=".5"/><use width="32" height="32" x="680" y="172" fill="#A26BFA" data-icon="phosphor-duotone/coin"/><text x="724" y="194" fill="#FFF" font-family="&quot;Microsoft YaHei&quot;, &quot;PingFang SC&quot;, sans-serif" font-size="19" font-weight="900">成本失控</text><rect width="120" height="28" x="1070" y="172" fill="#FFF" fill-opacity=".22" rx="14"/><text x="1130" y="191" fill="#FFF" font-family="&quot;Microsoft YaHei&quot;, &quot;PingFang SC&quot;, sans-serif" font-size="11" font-weight="800" letter-spacing="2" text-anchor="middle">METER · CAP</text><g id="q2-items"><circle cx="686" cy="248" r="6" fill="#A26BFA"/><text x="702" y="253" fill="#E8ECFF" font-family="&quot;Microsoft YaHei&quot;, &quot;PingFang SC&quot;, sans-serif" font-size="15" font-weight="700">Token 漂移</text><text x="702" y="274" fill="#A8B0D0" font-family="&quot;Microsoft YaHei&quot;, &quot;PingFang SC&quot;, sans-serif" font-size="13" font-weight="400">长尾 prompt 把单次成本拉爆</text><circle cx="686" cy="304" r="6" fill="#A26BFA"/><text x="702" y="309" fill="#E8ECFF" font-family="&quot;Microsoft YaHei&quot;, &quot;PingFang SC&quot;, sans-serif" font-size="15" font-weight="700">重复检索</text><text x="702" y="330" fill="#A8B0D0" font-family="&quot;Microsoft YaHei&quot;, &quot;PingFang SC&quot;, sans-serif" font-size="13" font-weight="400">相同问句反复打向量库 · 无缓存</text><circle cx="686" cy="360" r="6" fill="#A26BFA"/><text x="702" y="365" fill="#E8ECFF" font-family="&quot;Microsoft YaHei&quot;, &quot;PingFang SC&quot;, sans-serif" font-size="15" font-weight="700">链路过长 · 套娃调用</text></g></g><g id="q-loops"><rect width="540" height="232" x="80" y="412" fill="url(#cardGlass)" stroke="#F59E0B" stroke-opacity=".4" stroke-width="1" rx="16"/><rect width="504" height="1" x="98" y="413" fill="url(#glassEdge)"/><path fill="url(#headAmber)" d="M 94 412 h 512 a 14 14 0 0 1 14 14 v 46 h -540 v -46 a 14 14 0 0 1 14 -14 Z"/><circle cx="116" cy="442" r="18" fill="#0A0E27" fill-opacity=".5"/><use width="32" height="32" x="100" y="426" fill="#F59E0B" data-icon="phosphor-duotone/arrows-clockwise"/><text x="144" y="448" fill="#FFF" font-family="&quot;Microsoft YaHei&quot;, &quot;PingFang SC&quot;, sans-serif" font-size="19" font-weight="900">死循环</text><rect width="120" height="28" x="490" y="426" fill="#FFF" fill-opacity=".22" rx="14"/><text x="550" y="445" fill="#FFF" font-family="&quot;Microsoft YaHei&quot;, &quot;PingFang SC&quot;, sans-serif" font-size="11" font-weight="800" letter-spacing="2" text-anchor="middle">HARD STOP</text><g id="q3-items"><circle cx="106" cy="502" r="6" fill="#F59E0B"/><text x="122" y="507" fill="#E8ECFF" font-family="&quot;Microsoft YaHei&quot;, &quot;PingFang SC&quot;, sans-serif" font-size="15" font-weight="700">反思链路无终止</text><text x="122" y="528" fill="#A8B0D0" font-family="&quot;Microsoft YaHei&quot;, &quot;PingFang SC&quot;, sans-serif" font-size="13" font-weight="400">&quot;我再想想&quot; 无限循环 · 缺停机条件</text><circle cx="106" cy="558" r="6" fill="#F59E0B"/><text x="122" y="563" fill="#E8ECFF" font-family="&quot;Microsoft YaHei&quot;, &quot;PingFang SC&quot;, sans-serif" font-size="15" font-weight="700">Plan 反复修改</text><text x="122" y="584" fill="#A8B0D0" font-family="&quot;Microsoft YaHei&quot;, &quot;PingFang SC&quot;, sans-serif" font-size="13" font-weight="400">每步都重新拆解 · 上下文越塞越多</text><circle cx="106" cy="614" r="6" fill="#F59E0B"/><text x="122" y="619" fill="#E8ECFF" font-family="&quot;Microsoft YaHei&quot;, &quot;PingFang SC&quot;, sans-serif" font-size="15" font-weight="700">工具调用环 · A 调 B 调 A</text></g></g><g id="q-hallucination"><rect width="540" height="232" x="660" y="412" fill="url(#cardGlass)" stroke="#3DDDFC" stroke-opacity=".4" stroke-width="1" rx="16"/><rect width="504" height="1" x="678" y="413" fill="url(#glassEdge)"/><path fill="url(#headCyan)" d="M 674 412 h 512 a 14 14 0 0 1 14 14 v 46 h -540 v -46 a 14 14 0 0 1 14 -14 Z"/><circle cx="696" cy="442" r="18" fill="#0A0E27" fill-opacity=".5"/><use width="32" height="32" x="680" y="426" fill="#3DDDFC" data-icon="phosphor-duotone/sparkle"/><text x="724" y="448" fill="#FFF" font-family="&quot;Microsoft YaHei&quot;, &quot;PingFang SC&quot;, sans-serif" font-size="19" font-weight="900">幻觉</text><rect width="120" height="28" x="1070" y="426" fill="#FFF" fill-opacity=".22" rx="14"/><text x="1130" y="445" fill="#FFF" font-family="&quot;Microsoft YaHei&quot;, &quot;PingFang SC&quot;, sans-serif" font-size="11" font-weight="800" letter-spacing="2" text-anchor="middle">GROUND IT</text><g id="q4-items"><circle cx="686" cy="502" r="6" fill="#3DDDFC"/><text x="702" y="507" fill="#E8ECFF" font-family="&quot;Microsoft YaHei&quot;, &quot;PingFang SC&quot;, sans-serif" font-size="15" font-weight="700">编造工具</text><text x="702" y="528" fill="#A8B0D0" font-family="&quot;Microsoft YaHei&quot;, &quot;PingFang SC&quot;, sans-serif" font-size="13" font-weight="400">调用不存在的工具名 / API endpoint</text><circle cx="686" cy="558" r="6" fill="#3DDDFC"/><text x="702" y="563" fill="#E8ECFF" font-family="&quot;Microsoft YaHei&quot;, &quot;PingFang SC&quot;, sans-serif" font-size="15" font-weight="700">编造结果</text><text x="702" y="584" fill="#A8B0D0" font-family="&quot;Microsoft YaHei&quot;, &quot;PingFang SC&quot;, sans-serif" font-size="13" font-weight="400">未调真实接口就给出&quot;数据&quot;</text><circle cx="686" cy="614" r="6" fill="#3DDDFC"/><text x="702" y="619" fill="#E8ECFF" font-family="&quot;Microsoft YaHei&quot;, &quot;PingFang SC&quot;, sans-serif" font-size="15" font-weight="700">假装成功 · &quot;已为您发送&quot;</text></g></g><g id="footer"><text x="60" y="696" fill="#6B7299" font-family="&quot;Microsoft YaHei&quot;, &quot;PingFang SC&quot;, sans-serif" font-size="13" font-weight="600">失败模式四象限 · 分类决定预案</text><text x="1220" y="696" fill="#6B7299" font-family="&quot;Microsoft YaHei&quot;, &quot;PingFang SC&quot;, sans-serif" font-size="13" font-weight="600" text-anchor="end">10 / 12</text></g></svg>