<svg xmlns="http://www.w3.org/2000/svg" width="1280" height="720" viewBox="0 0 1280 720"><defs><pattern id="bpGridMajor" width="40" height="40" x="0" y="0" data-pptx-pattern="lgGrid" patternUnits="userSpaceOnUse"><rect width="40" height="40" fill="#0E2A47"/><path fill="none" stroke="#2D4A6B" stroke-width=".6" d="M 40 0 L 0 0 0 40"/></pattern><pattern id="bpGridMinor" width="8" height="8" x="0" y="0" data-pptx-pattern="smGrid" patternUnits="userSpaceOnUse"><rect width="8" height="8" fill="#0E2A47"/><path fill="none" stroke="#1A3A5C" stroke-width=".3" d="M 8 0 L 0 0 0 8"/></pattern><radialGradient id="bgVignette" cx="50%" cy="50%" r="75%"><stop offset="60%" stop-color="#0E2A47" stop-opacity="0"/><stop offset="100%" stop-color="#000" stop-opacity=".45"/></radialGradient><radialGradient id="amberGlow" cx="50%" cy="50%" r="50%"><stop offset="0%" stop-color="#FFB627" stop-opacity=".35"/><stop offset="100%" stop-color="#FFB627" stop-opacity="0"/></radialGradient></defs><g id="bg"><rect width="1280" height="720" fill="#0E2A47"/><rect width="1280" height="720" fill="url(#bpGridMinor)" opacity=".5"/><rect width="1280" height="720" fill="url(#bpGridMajor)" opacity=".7"/><rect width="1280" height="720" fill="url(#bgVignette)"/></g><g id="title-block"><line x1="60" x2="220" y1="100" y2="100" stroke="#FFB627" stroke-width="2"/><text x="60" y="130" fill="#FFB627" font-family="Consolas, 'Courier New', monospace" font-size="13" letter-spacing="3">DRAWING NO. K8S-ARCH-2026 / 01</text><text x="60" y="220" fill="#F0F4F8" font-family="Arial, 'Microsoft YaHei', sans-serif" font-size="64" font-weight="bold" letter-spacing="-1">Kubernetes</text><text x="60" y="278" fill="#5BA3E0" font-family="Arial, 'Microsoft YaHei', sans-serif" font-size="45" font-weight="bold">Cluster Architecture</text><text x="60" y="318" fill="#A0B8D0" font-family="Arial, 'Microsoft YaHei', sans-serif" font-size="20">A Blueprint of the Modern Container Orchestrator</text></g><g id="metadata-block"><line x1="60" x2="60" y1="610" y2="660" stroke="#5BA3E0" stroke-width="1"/><text x="78" y="624" fill="#A0B8D0" font-family="Consolas, 'Courier New', monospace" font-size="11">SCALE</text><text x="78" y="640" fill="#F0F4F8" font-family="Consolas, 'Courier New', monospace" font-size="13">1 : ∞</text><text x="78" y="657" fill="#6B85A3" font-family="Consolas, 'Courier New', monospace" font-size="10">CLUSTER-LEVEL VIEW</text><line x1="220" x2="220" y1="610" y2="660" stroke="#5BA3E0" stroke-width="1"/><text x="238" y="624" fill="#A0B8D0" font-family="Consolas, 'Courier New', monospace" font-size="11">PROJECTION</text><text x="238" y="640" fill="#F0F4F8" font-family="Consolas, 'Courier New', monospace" font-size="13">ISOMETRIC</text><text x="238" y="657" fill="#6B85A3" font-family="Consolas, 'Courier New', monospace" font-size="10">30° / 30° / 90°</text><line x1="380" x2="380" y1="610" y2="660" stroke="#5BA3E0" stroke-width="1"/><text x="398" y="624" fill="#A0B8D0" font-family="Consolas, 'Courier New', monospace" font-size="11">SHEETS</text><text x="398" y="640" fill="#F0F4F8" font-family="Consolas, 'Courier New', monospace" font-size="13">10 / 10</text><text x="398" y="657" fill="#6B85A3" font-family="Consolas, 'Courier New', monospace" font-size="10">ENGINEERING REFERENCE</text></g><g id="cluster-decor"><ellipse cx="900" cy="395" fill="#5BA3E0" fill-opacity=".04" stroke="#3E7AB8" stroke-dasharray="3 5" stroke-width=".5" rx="280" ry="40"/><line x1="900" x2="730" y1="320" y2="395" stroke="#5BA3E0" stroke-dasharray="3 4" stroke-width="1" opacity=".6"/><line x1="900" x2="900" y1="320" y2="395" stroke="#5BA3E0" stroke-dasharray="3 4" stroke-width="1" opacity=".6"/><line x1="900" x2="1070" y1="320" y2="395" stroke="#5BA3E0" stroke-dasharray="3 4" stroke-width="1" opacity=".6"/><line x1="600" x2="640" y1="250" y2="250" stroke="#FFB627" stroke-width=".8"/><line x1="600" x2="600" y1="250" y2="220" stroke="#FFB627" stroke-width=".8"/><text x="610" y="215" fill="#FFB627" font-family="Consolas, 'Courier New', monospace" font-size="10">CONTROL PLANE</text><line x1="600" x2="640" y1="465" y2="465" stroke="#5BA3E0" stroke-width=".8"/><line x1="600" x2="600" y1="465" y2="555" stroke="#5BA3E0" stroke-width=".8"/><text x="555" y="570" fill="#5BA3E0" font-family="Consolas, 'Courier New', monospace" font-size="10">DATA PLANE</text></g><g id="cp-node"><circle cx="900" cy="250" r="120" fill="url(#amberGlow)"/><polygon fill="#1A3A5C" stroke="#FFB627" stroke-width="2" points="900 180 970 220 970 310 900 350 830 310 830 220"/><line x1="900" x2="900" y1="180" y2="260" stroke="#FFB627" stroke-width="1.5"/><line x1="900" x2="830" y1="260" y2="220" stroke="#FFB627" stroke-width="1.5"/><line x1="900" x2="970" y1="260" y2="220" stroke="#FFB627" stroke-width="1.5"/><text x="900" y="276" fill="#FFB627" font-family="Consolas, 'Courier New', monospace" font-size="11" text-anchor="middle">CONTROL</text><text x="900" y="290" fill="#FFB627" font-family="Consolas, 'Courier New', monospace" font-size="11" text-anchor="middle">PLANE</text><text x="900" y="313" fill="#F0F4F8" font-family="Consolas, 'Courier New', monospace" font-size="9" opacity=".8" text-anchor="middle">apiserver · etcd</text><text x="900" y="326" fill="#F0F4F8" font-family="Consolas, 'Courier New', monospace" font-size="9" opacity=".8" text-anchor="middle">scheduler · ctrl-mgr</text></g><g id="worker-1"><polygon fill="#1A3A5C" stroke="#5BA3E0" stroke-width="1.5" points="730 395 782 425 782 475 730 505 678 475 678 425"/><line x1="730" x2="730" y1="395" y2="445" stroke="#5BA3E0" stroke-width="1"/><line x1="730" x2="678" y1="445" y2="425" stroke="#5BA3E0" stroke-width="1"/><line x1="730" x2="782" y1="445" y2="425" stroke="#5BA3E0" stroke-width="1"/><text x="730" y="540" fill="#A0B8D0" font-family="Consolas, 'Courier New', monospace" font-size="11" text-anchor="middle">node-01</text></g><g id="worker-2"><polygon fill="#1A3A5C" stroke="#5BA3E0" stroke-width="1.5" points="900 395 952 425 952 475 900 505 848 475 848 425"/><line x1="900" x2="900" y1="395" y2="445" stroke="#5BA3E0" stroke-width="1"/><line x1="900" x2="848" y1="445" y2="425" stroke="#5BA3E0" stroke-width="1"/><line x1="900" x2="952" y1="445" y2="425" stroke="#5BA3E0" stroke-width="1"/><text x="900" y="540" fill="#A0B8D0" font-family="Consolas, 'Courier New', monospace" font-size="11" text-anchor="middle">node-02</text></g><g id="worker-3"><polygon fill="#1A3A5C" stroke="#5BA3E0" stroke-width="1.5" points="1070 395 1122 425 1122 475 1070 505 1018 475 1018 425"/><line x1="1070" x2="1070" y1="395" y2="445" stroke="#5BA3E0" stroke-width="1"/><line x1="1070" x2="1018" y1="445" y2="425" stroke="#5BA3E0" stroke-width="1"/><line x1="1070" x2="1122" y1="445" y2="425" stroke="#5BA3E0" stroke-width="1"/><text x="1070" y="540" fill="#A0B8D0" font-family="Consolas, 'Courier New', monospace" font-size="11" text-anchor="middle">node-03</text></g><g id="footer"><line x1="60" x2="1220" y1="680" y2="680" stroke="#2D4A6B" stroke-width=".5"/><text x="60" y="700" fill="#6B85A3" font-family="Consolas, 'Courier New', monospace" font-size="11">K8S-ARCH-2026 · DRAWING 01 OF 10 · COVER</text><text x="1220" y="700" fill="#6B85A3" font-family="Consolas, 'Courier New', monospace" font-size="11" text-anchor="end">REV 1.0 · 2026-05</text></g></svg>