<svg xmlns="http://www.w3.org/2000/svg" width="1280" height="720" viewBox="0 0 1280 720"><defs><pattern id="bpGridMajor" width="40" height="40" x="0" y="0" data-pptx-pattern="lgGrid" patternUnits="userSpaceOnUse"><rect width="40" height="40" fill="#0E2A47"/><path fill="none" stroke="#2D4A6B" stroke-width=".6" d="M 40 0 L 0 0 0 40"/></pattern><pattern id="bpGridMinor" width="8" height="8" x="0" y="0" data-pptx-pattern="smGrid" patternUnits="userSpaceOnUse"><rect width="8" height="8" fill="#0E2A47"/><path fill="none" stroke="#1A3A5C" stroke-width=".3" d="M 8 0 L 0 0 0 8"/></pattern></defs><g id="bg"><rect width="1280" height="720" fill="#0E2A47"/><rect width="1280" height="720" fill="url(#bpGridMinor)" opacity=".4"/><rect width="1280" height="720" fill="url(#bpGridMajor)" opacity=".6"/></g><g id="header"><text x="60" y="42" fill="#F0F4F8" font-family="Arial, 'Microsoft YaHei', sans-serif" font-size="30" font-weight="bold">Worker Node: Three Layers</text><text x="1220" y="42" fill="#A0B8D0" font-family="Consolas, 'Courier New', monospace" font-size="11" text-anchor="end">P04 / 10</text><line x1="60" x2="1220" y1="58" y2="58" stroke="#2D4A6B" stroke-width=".5"/><text x="60" y="78" fill="#6B85A3" font-family="Arial, 'Microsoft YaHei', sans-serif" font-size="13">EXPLODED ISOMETRIC VIEW · KUBELET / KUBE-PROXY / CONTAINER RUNTIME</text></g><g id="isometric-node"><polygon fill="#1A3A5C" fill-opacity=".4" stroke="#5BA3E0" stroke-width="1.8" points="400 200 700 355 700 505 400 650 100 505 100 355"/><line x1="400" x2="400" y1="200" y2="350" stroke="#5BA3E0" stroke-width="1"/><line x1="400" x2="100" y1="350" y2="355" stroke="#5BA3E0" stroke-width="1"/><line x1="400" x2="700" y1="350" y2="355" stroke="#5BA3E0" stroke-width="1"/><g id="kubelet-layer"><polygon fill="#FFB627" fill-opacity=".15" stroke="#FFB627" stroke-width="1.5" points="400 275 580 368 580 398 400 305"/><polygon fill="#FFB627" fill-opacity=".15" stroke="#FFB627" stroke-width="1.5" points="400 275 220 368 220 398 400 305"/><polygon fill="none" stroke="#FFB627" stroke-dasharray="2 3" stroke-width=".5" points="220 368 400 275 580 368 400 460"/><text x="400" y="370" fill="#FFB627" font-family="Consolas, 'Courier New', monospace" font-size="14" font-weight="bold" text-anchor="middle">kubelet</text><text x="400" y="390" fill="#F0F4F8" font-family="Arial, 'Microsoft YaHei', sans-serif" font-size="11" text-anchor="middle">node agent</text></g><g id="kubeproxy-layer"><polygon fill="#5BA3E0" fill-opacity=".12" stroke="#5BA3E0" stroke-width="1.3" points="400 455 580 548 580 578 400 485"/><polygon fill="#5BA3E0" fill-opacity=".12" stroke="#5BA3E0" stroke-width="1.3" points="400 455 220 548 220 578 400 485"/><text x="400" y="540" fill="#5BA3E0" font-family="Consolas, 'Courier New', monospace" font-size="13" font-weight="bold" text-anchor="middle">kube-proxy</text><text x="400" y="560" fill="#F0F4F8" font-family="Arial, 'Microsoft YaHei', sans-serif" font-size="11" text-anchor="middle">service rules</text></g><g id="runtime-layer"><polygon fill="#3E7AB8" fill-opacity=".12" stroke="#3E7AB8" stroke-width="1.3" points="400 580 580 673 580 505 400 505"/><polygon fill="#3E7AB8" fill-opacity=".12" stroke="#3E7AB8" stroke-width="1.3" points="400 580 220 673 220 505 400 505"/><text x="400" y="620" fill="#A0B8D0" font-family="Consolas, 'Courier New', monospace" font-size="13" font-weight="bold" text-anchor="middle">container runtime</text><text x="400" y="640" fill="#A0B8D0" font-family="Arial, 'Microsoft YaHei', sans-serif" font-size="10" text-anchor="middle">CRI · containerd / CRI-O</text></g><g id="pods-inside"><polygon fill="#7FD99F" fill-opacity=".2" stroke="#7FD99F" stroke-width=".8" points="335 572 365 587 365 597 335 582"/><polygon fill="#7FD99F" fill-opacity=".2" stroke="#7FD99F" stroke-width=".8" points="380 594 410 609 410 619 380 604"/><polygon fill="#7FD99F" fill-opacity=".2" stroke="#7FD99F" stroke-width=".8" points="425 616 455 631 455 641 425 626"/></g><g id="dimension-lines"><line x1="660" x2="720" y1="200" y2="200" stroke="#5BA3E0" stroke-width=".6"/><line x1="660" x2="720" y1="650" y2="650" stroke="#5BA3E0" stroke-width=".6"/><line x1="710" x2="710" y1="200" y2="650" stroke="#5BA3E0" stroke-width=".6"/><polygon fill="#5BA3E0" points="710 200 706 210 714 210"/><polygon fill="#5BA3E0" points="710 650 706 640 714 640"/><rect width="50" height="20" x="685" y="415" fill="#0E2A47"/><text x="710" y="430" fill="#5BA3E0" font-family="Consolas, 'Courier New', monospace" font-size="10" text-anchor="middle">NODE</text></g></g><g id="leader-kubelet"><line x1="580" x2="780" y1="383" y2="383" stroke="#FFB627" stroke-width=".8"/><line x1="780" x2="800" y1="383" y2="383" stroke="#FFB627" stroke-width=".8"/><circle cx="580" cy="383" r="2.5" fill="#FFB627"/><rect width="380" height="90" x="800" y="335" fill="#1A3A5C" fill-opacity=".4" stroke="#FFB627" stroke-width="1.2"/><text x="816" y="358" fill="#FFB627" font-family="Consolas, 'Courier New', monospace" font-size="13" font-weight="bold">kubelet</text><text x="892" y="358" fill="#A0B8D0" font-family="Arial, 'Microsoft YaHei', sans-serif" font-size="11">— node agent</text><text x="816" y="380" fill="#F0F4F8" font-family="Arial, 'Microsoft YaHei', sans-serif" font-size="12">• Watches apiserver for Pods scheduled here</text><text x="816" y="397" fill="#F0F4F8" font-family="Arial, 'Microsoft YaHei', sans-serif" font-size="12">• Reconciles PodSpecs → instructs runtime</text><text x="816" y="414" fill="#F0F4F8" font-family="Arial, 'Microsoft YaHei', sans-serif" font-size="12">• Liveness / readiness / startup probes</text></g><g id="leader-proxy"><line x1="580" x2="780" y1="555" y2="540" stroke="#5BA3E0" stroke-width=".8"/><line x1="780" x2="800" y1="540" y2="540" stroke="#5BA3E0" stroke-width=".8"/><circle cx="580" cy="555" r="2.5" fill="#5BA3E0"/><rect width="380" height="80" x="800" y="450" fill="#1A3A5C" fill-opacity=".4" stroke="#5BA3E0" stroke-width="1.2"/><text x="816" y="473" fill="#5BA3E0" font-family="Consolas, 'Courier New', monospace" font-size="13" font-weight="bold">kube-proxy</text><text x="897" y="473" fill="#A0B8D0" font-family="Arial, 'Microsoft YaHei', sans-serif" font-size="11">— Service rules</text><text x="816" y="495" fill="#F0F4F8" font-family="Arial, 'Microsoft YaHei', sans-serif" font-size="12">• Translates virtual IP → backing Pod IPs</text><text x="816" y="512" fill="#A0B8D0" font-family="Arial, 'Microsoft YaHei', sans-serif" font-size="11"><tspan font-family="Consolas, 'Courier New', monospace">iptables</tspan> · <tspan font-family="Consolas, 'Courier New', monospace">IPVS</tspan> · <tspan font-family="Consolas, 'Courier New', monospace">nftables</tspan> · optional with eBPF CNI</text></g><g id="leader-runtime"><line x1="580" x2="780" y1="625" y2="620" stroke="#3E7AB8" stroke-width=".8"/><line x1="780" x2="800" y1="620" y2="620" stroke="#3E7AB8" stroke-width=".8"/><circle cx="580" cy="625" r="2.5" fill="#3E7AB8"/><rect width="380" height="80" x="800" y="555" fill="#1A3A5C" fill-opacity=".4" stroke="#3E7AB8" stroke-width="1.2"/><text x="816" y="578" fill="#3E7AB8" font-family="Consolas, 'Courier New', monospace" font-size="13" font-weight="bold">container runtime</text><text x="942" y="578" fill="#A0B8D0" font-family="Arial, 'Microsoft YaHei', sans-serif" font-size="11">— CRI implementer</text><text x="816" y="600" fill="#F0F4F8" font-family="Arial, 'Microsoft YaHei', sans-serif" font-size="12">• Pulls images, starts containers, manages lifecycle</text><text x="816" y="617" fill="#A0B8D0" font-family="Arial, 'Microsoft YaHei', sans-serif" font-size="11"><tspan font-family="Consolas, 'Courier New', monospace">containerd</tspan> · <tspan font-family="Consolas, 'Courier New', monospace">CRI-O</tspan> · Docker removed since v1.24</text></g><g id="footer"><line x1="60" x2="1220" y1="680" y2="680" stroke="#2D4A6B" stroke-width=".5"/><text x="60" y="700" fill="#6B85A3" font-family="Consolas, 'Courier New', monospace" font-size="11">K8S-ARCH-2026 · DRAWING 04 OF 10 · WORKER NODE</text><text x="1220" y="700" fill="#6B85A3" font-family="Consolas, 'Courier New', monospace" font-size="11" text-anchor="end">SHEET 04 OF 10</text></g></svg>