<svg xmlns="http://www.w3.org/2000/svg" width="1280" height="720" viewBox="0 0 1280 720"><defs><linearGradient id="avgBar" x1="0" x2="1" y1="0" y2="0"><stop offset="0%" stop-color="#3E7CB1"/><stop offset="100%" stop-color="#1B3A5C"/></linearGradient></defs><g id="bg"><rect width="1280" height="720" fill="#FFF"/></g><g id="header"><rect width="6" height="56" x="64" y="56" fill="#E8743B" rx="3"/><text x="86" y="90" fill="#1B3A5C" font-family="&quot;Microsoft YaHei&quot;, Arial, sans-serif" font-size="32" font-weight="800">更少参数,持平或更优</text><text x="88" y="120" fill="#8A94A1" font-family="&quot;Microsoft YaHei&quot;, Arial, sans-serif" font-size="14" font-weight="700" letter-spacing="1">GLUE BENCHMARK · OVERALL AVG SCORE(越高越好)</text></g><g id="table"><g transform="translate(64, 156)"><line x1="0" x2="1152" y1="40" y2="40" stroke="#D8DEE6" stroke-width="2"/><text x="20" y="26" fill="#8A94A1" font-family="&quot;Microsoft YaHei&quot;, Arial, sans-serif" font-size="13" font-weight="800" letter-spacing="1">模型</text><text x="430" y="26" fill="#8A94A1" font-family="&quot;Microsoft YaHei&quot;, Arial, sans-serif" font-size="13" font-weight="800" letter-spacing="1" text-anchor="middle">方法</text><text x="700" y="26" fill="#8A94A1" font-family="&quot;Microsoft YaHei&quot;, Arial, sans-serif" font-size="13" font-weight="800" letter-spacing="1" text-anchor="end"># 可训练参数</text><text x="850" y="26" fill="#8A94A1" font-family="&quot;Microsoft YaHei&quot;, Arial, sans-serif" font-size="13" font-weight="800" letter-spacing="1" text-anchor="end">GLUE AVG</text><text x="900" y="26" fill="#8A94A1" font-family="&quot;Microsoft YaHei&quot;, Arial, sans-serif" font-size="13" font-weight="800" letter-spacing="1">得分(视觉)</text><text x="20" y="86" fill="#1D2733" font-family="&quot;Microsoft YaHei&quot;, Arial, sans-serif" font-size="16" font-weight="700">RoBERTa base</text><rect width="100" height="26" x="380" y="68" fill="#F4F7FA" rx="13"/><text x="430" y="86" fill="#5B6776" font-family="&quot;Microsoft YaHei&quot;, Arial, sans-serif" font-size="13" font-weight="700" text-anchor="middle">FT</text><text x="700" y="86" fill="#5B6776" font-family="&quot;Microsoft YaHei&quot;, Arial, sans-serif" font-size="16" text-anchor="end">125M</text><text x="850" y="86" fill="#5B6776" font-family="&quot;Microsoft YaHei&quot;, Arial, sans-serif" font-size="16" text-anchor="end">86.4</text><rect width="240" height="14" x="900" y="74" fill="#F4F7FA" rx="7"/><rect width="72" height="14" x="900" y="74" fill="#8A94A1" rx="7"/><rect width="1152" height="52" x="0" y="104" fill="#FBF0E9" rx="6"/><text x="20" y="138" fill="#1D2733" font-family="&quot;Microsoft YaHei&quot;, Arial, sans-serif" font-size="16" font-weight="700">RoBERTa base</text><rect width="100" height="26" x="380" y="120" fill="#1B3A5C" rx="13"/><text x="430" y="138" fill="#FFF" font-family="&quot;Microsoft YaHei&quot;, Arial, sans-serif" font-size="13" font-weight="700" text-anchor="middle">LoRA</text><text x="700" y="138" fill="#E8743B" font-family="&quot;Microsoft YaHei&quot;, Arial, sans-serif" font-size="16" font-weight="700" text-anchor="end">0.3M</text><text x="850" y="138" fill="#2E7D32" font-family="&quot;Microsoft YaHei&quot;, Arial, sans-serif" font-size="16" font-weight="800" text-anchor="end">87.2</text><rect width="240" height="14" x="900" y="126" fill="#F4F7FA" rx="7"/><rect width="96" height="14" x="900" y="126" fill="url(#avgBar)" rx="7"/><text x="20" y="200" fill="#1D2733" font-family="&quot;Microsoft YaHei&quot;, Arial, sans-serif" font-size="16" font-weight="700">RoBERTa large</text><rect width="100" height="26" x="380" y="182" fill="#F4F7FA" rx="13"/><text x="430" y="200" fill="#5B6776" font-family="&quot;Microsoft YaHei&quot;, Arial, sans-serif" font-size="13" font-weight="700" text-anchor="middle">FT</text><text x="700" y="200" fill="#5B6776" font-family="&quot;Microsoft YaHei&quot;, Arial, sans-serif" font-size="16" text-anchor="end">355M</text><text x="850" y="200" fill="#5B6776" font-family="&quot;Microsoft YaHei&quot;, Arial, sans-serif" font-size="16" text-anchor="end">88.9</text><rect width="240" height="14" x="900" y="188" fill="#F4F7FA" rx="7"/><rect width="147" height="14" x="900" y="188" fill="#8A94A1" rx="7"/><rect width="1152" height="52" x="0" y="218" fill="#FBF0E9" rx="6"/><text x="20" y="252" fill="#1D2733" font-family="&quot;Microsoft YaHei&quot;, Arial, sans-serif" font-size="16" font-weight="700">RoBERTa large</text><rect width="100" height="26" x="380" y="234" fill="#1B3A5C" rx="13"/><text x="430" y="252" fill="#FFF" font-family="&quot;Microsoft YaHei&quot;, Arial, sans-serif" font-size="13" font-weight="700" text-anchor="middle">LoRA</text><text x="700" y="252" fill="#E8743B" font-family="&quot;Microsoft YaHei&quot;, Arial, sans-serif" font-size="16" font-weight="700" text-anchor="end">0.8M</text><text x="850" y="252" fill="#2E7D32" font-family="&quot;Microsoft YaHei&quot;, Arial, sans-serif" font-size="16" font-weight="800" text-anchor="end">89.0</text><rect width="240" height="14" x="900" y="240" fill="#F4F7FA" rx="7"/><rect width="150" height="14" x="900" y="240" fill="url(#avgBar)" rx="7"/><text x="20" y="314" fill="#1D2733" font-family="&quot;Microsoft YaHei&quot;, Arial, sans-serif" font-size="16" font-weight="700">DeBERTa XXL</text><rect width="100" height="26" x="380" y="296" fill="#F4F7FA" rx="13"/><text x="430" y="314" fill="#5B6776" font-family="&quot;Microsoft YaHei&quot;, Arial, sans-serif" font-size="13" font-weight="700" text-anchor="middle">FT</text><text x="700" y="314" fill="#5B6776" font-family="&quot;Microsoft YaHei&quot;, Arial, sans-serif" font-size="16" text-anchor="end">1500M</text><text x="850" y="314" fill="#5B6776" font-family="&quot;Microsoft YaHei&quot;, Arial, sans-serif" font-size="16" text-anchor="end">91.1</text><rect width="240" height="14" x="900" y="302" fill="#F4F7FA" rx="7"/><rect width="213" height="14" x="900" y="302" fill="#8A94A1" rx="7"/><rect width="1152" height="52" x="0" y="332" fill="#FBF0E9" rx="6"/><text x="20" y="366" fill="#1D2733" font-family="&quot;Microsoft YaHei&quot;, Arial, sans-serif" font-size="16" font-weight="700">DeBERTa XXL</text><rect width="100" height="26" x="380" y="348" fill="#1B3A5C" rx="13"/><text x="430" y="366" fill="#FFF" font-family="&quot;Microsoft YaHei&quot;, Arial, sans-serif" font-size="13" font-weight="700" text-anchor="middle">LoRA</text><text x="700" y="366" fill="#E8743B" font-family="&quot;Microsoft YaHei&quot;, Arial, sans-serif" font-size="16" font-weight="700" text-anchor="end">4.7M</text><text x="850" y="366" fill="#2E7D32" font-family="&quot;Microsoft YaHei&quot;, Arial, sans-serif" font-size="16" font-weight="800" text-anchor="end">91.3</text><rect width="240" height="14" x="900" y="354" fill="#F4F7FA" rx="7"/><rect width="219" height="14" x="900" y="354" fill="url(#avgBar)" rx="7"/></g></g><g id="takeaway"><rect width="1152" height="56" x="64" y="566" fill="#F4F7FA" rx="10"/><use width="32" height="32" x="84" y="578" fill="#2E7D32" stroke-width="2" data-icon="tabler-outline/circle-check"/><text x="128" y="600" fill="#1D2733" font-family="&quot;Microsoft YaHei&quot;, Arial, sans-serif" font-size="17">三类模型上,LoRA 用<tspan fill="#E8743B" font-weight="800"> 1/300 ~ 1/400 </tspan>的可训练参数,GLUE 平均分<tspan fill="#2E7D32" font-weight="800">持平甚至略优于</tspan>全量微调</text></g><g id="footer"><text x="64" y="700" fill="#8A94A1" font-family="&quot;Microsoft YaHei&quot;, Arial, sans-serif" font-size="11">来源:LoRA Table 2 · Hu et al. 2021</text><text x="1216" y="700" fill="#8A94A1" font-family="&quot;Microsoft YaHei&quot;, Arial, sans-serif" font-size="11" text-anchor="end">12 / 15</text></g></svg>