<svg xmlns="http://www.w3.org/2000/svg" viewBox="0 0 1280 720"><defs><clipPath id="mainImg"><rect width="810" height="600" x="430" y="60" rx="12"/></clipPath><clipPath id="smallImg"><rect width="160" height="120" x="50" y="490" rx="8"/></clipPath></defs><rect width="1280" height="720" fill="#0A0A0A"/><text x="50" y="35" fill="#C9A96E" fill-opacity=".7" font-family="Georgia, SimSun, serif" font-size="11" letter-spacing="3">NEWS CAFÉ</text><rect width="1180" height="1" x="50" y="45" fill="#2A2520"/><rect width="810" height="600" x="430" y="60" fill="#1A1A1A" rx="12"/><image width="810" height="600" x="430" y="60" clip-path="url(#mainImg)" href="../images/gucci_memoria1.jpg" preserveAspectRatio="xMidYMid slice"/><rect width="810" height="600" x="430" y="60" fill="#0A0A0A" fill-opacity=".1" rx="12"/><use width="32" height="32" x="50" y="75" fill="#C9A96E" data-icon="phosphor-duotone/palette"/><text x="50" y="140" fill="#C9A96E" font-family="Georgia, SimSun, serif" font-size="14" letter-spacing="4">GUCCI</text><text x="50" y="180" fill="#F5F0EB" font-family="Georgia, SimSun, serif" font-size="30" font-weight="bold">Gucci Memoria</text><rect width="80" height="2" x="50" y="198" fill="#C9A96E"/><text fill="#F5F0EB" font-family="'Microsoft YaHei', 'PingFang SC', Arial, sans-serif" font-size="16"><tspan x="50" y="235">米兰圣辛普利齐亚诺回廊</tspan> <tspan x="50" dy="26">启幕沉浸式展览。</tspan></text><text fill="#F5F0EB" font-family="'Microsoft YaHei', 'PingFang SC', Arial, sans-serif" font-size="16"><tspan x="50" y="310">由 Demna 策划，追溯品牌</tspan> <tspan x="50" dy="26">105 年发展历程。</tspan></text><text fill="#F5F0EB" font-family="'Microsoft YaHei', 'PingFang SC', Arial, sans-serif" font-size="16"><tspan x="50" y="385">十二幅挂毯凝练品牌关键</tspan> <tspan x="50" dy="26">发展节点与历任创意总监</tspan> <tspan x="50" dy="26">的设计愿景。</tspan></text><rect width="160" height="120" x="50" y="490" fill="#1A1A1A" rx="8"/><image width="160" height="120" x="50" y="490" clip-path="url(#smallImg)" href="../images/gucci_memoria2.jpg" preserveAspectRatio="xMidYMid slice"/><text x="230" y="530" fill="#9E9690" font-family="'Microsoft YaHei', 'PingFang SC', Arial, sans-serif" font-size="13"><tspan x="230" dy="0">Flora 花卉主题</tspan> <tspan x="230" dy="20">花园装置</tspan></text><text x="230" y="588" fill="#9E9690" font-family="'Microsoft YaHei', 'PingFang SC', Arial, sans-serif" font-size="13">手袋配饰专享预售</text><rect width="1180" height="1" x="50" y="670" fill="#2A2520"/><text x="50" y="695" fill="#9E9690" font-family="'Microsoft YaHei', 'PingFang SC', Arial, sans-serif" font-size="11">NEWS Café · 美学周鉴</text><text x="1230" y="695" fill="#9E9690" font-family="'Microsoft YaHei', 'PingFang SC', Arial, sans-serif" font-size="11" text-anchor="end">06 / 16</text></svg>