<svg xmlns="http://www.w3.org/2000/svg" viewBox="0 0 1280 720"><defs><linearGradient id="goldLine" x1="0" x2="1" y1="0" y2="0"><stop offset="0%" stop-color="#C9A96E" stop-opacity="0"/><stop offset="20%" stop-color="#C9A96E"/><stop offset="80%" stop-color="#E8D5B5"/><stop offset="100%" stop-color="#E8D5B5" stop-opacity="0"/></linearGradient></defs><rect width="1280" height="720" fill="#0A0A0A"/><text x="50" y="35" fill="#C9A96E" fill-opacity=".7" font-family="Georgia, SimSun, serif" font-size="11" letter-spacing="3">NEWS CAFÉ</text><rect width="1180" height="1" x="50" y="45" fill="#2A2520"/><text x="640" y="90" fill="#F5F0EB" font-family="Georgia, SimSun, serif" font-size="30" font-weight="bold" text-anchor="middle">本期品牌全景</text><text x="640" y="115" fill="#C9A96E" font-family="Georgia, SimSun, serif" font-size="14" letter-spacing="4" text-anchor="middle">BRAND PANORAMA</text><use width="28" height="28" x="50" y="160" fill="#C9A96E" data-icon="phosphor-duotone/crown"/><text x="90" y="182" fill="#C9A96E" font-family="Georgia, SimSun, serif" font-size="16" font-weight="bold">顶级奢侈品牌</text><rect width="1180" height="100" x="50" y="200" fill="#1A1A1A" rx="10"/><text x="140" y="260" fill="#F5F0EB" font-family="Georgia, SimSun, serif" font-size="22" font-weight="bold" text-anchor="middle">HERMÈS</text><text x="360" y="260" fill="#F5F0EB" font-family="Georgia, SimSun, serif" font-size="22" font-weight="bold" text-anchor="middle">CHANEL</text><text x="560" y="260" fill="#F5F0EB" font-family="Georgia, SimSun, serif" font-size="22" font-weight="bold" text-anchor="middle">DIOR</text><text x="800" y="260" fill="#F5F0EB" font-family="Georgia, SimSun, serif" font-size="22" font-weight="bold" text-anchor="middle">LOUIS VUITTON</text><text x="1060" y="260" fill="#F5F0EB" font-family="Georgia, SimSun, serif" font-size="22" font-weight="bold" text-anchor="middle">GUCCI</text><rect width="1" height="40" x="250" y="230" fill="#2A2520"/><rect width="1" height="40" x="460" y="230" fill="#2A2520"/><rect width="1" height="40" x="660" y="230" fill="#2A2520"/><rect width="1" height="40" x="940" y="230" fill="#2A2520"/><use width="28" height="28" x="50" y="330" fill="#C9A96E" data-icon="phosphor-duotone/diamond"/><text x="90" y="352" fill="#C9A96E" font-family="Georgia, SimSun, serif" font-size="16" font-weight="bold">轻奢 / 设计师品牌</text><rect width="1180" height="100" x="50" y="370" fill="#1A1A1A" rx="10"/><text x="147" y="430" fill="#F5F0EB" font-family="Georgia, SimSun, serif" font-size="18" text-anchor="middle">Vhernier</text><text x="340" y="430" fill="#F5F0EB" font-family="Georgia, SimSun, serif" font-size="18" text-anchor="middle">CELINE</text><text x="530" y="430" fill="#F5F0EB" font-family="Georgia, SimSun, serif" font-size="18" text-anchor="middle">Bottega Veneta</text><text x="740" y="430" fill="#F5F0EB" font-family="Georgia, SimSun, serif" font-size="18" text-anchor="middle">McQueen</text><text x="920" y="430" fill="#F5F0EB" font-family="Georgia, SimSun, serif" font-size="18" text-anchor="middle">Max Mara</text><text x="1100" y="430" fill="#F5F0EB" font-family="Georgia, SimSun, serif" font-size="18" text-anchor="middle">Chloé</text><rect width="1" height="30" x="243" y="410" fill="#2A2520"/><rect width="1" height="30" x="436" y="410" fill="#2A2520"/><rect width="1" height="30" x="636" y="410" fill="#2A2520"/><rect width="1" height="30" x="836" y="410" fill="#2A2520"/><rect width="1" height="30" x="1010" y="410" fill="#2A2520"/><use width="28" height="28" x="50" y="500" fill="#C9A96E" data-icon="phosphor-duotone/sparkle"/><text x="90" y="522" fill="#C9A96E" font-family="Georgia, SimSun, serif" font-size="16" font-weight="bold">潮流 / 生活方式</text><rect width="1180" height="100" x="50" y="540" fill="#1A1A1A" rx="10"/><text x="100" y="600" fill="#F5F0EB" font-family="Georgia, SimSun, serif" font-size="16">TAD FAB</text><text x="230" y="600" fill="#F5F0EB" font-family="Georgia, SimSun, serif" font-size="16">Apede Mod</text><text x="380" y="600" fill="#F5F0EB" font-family="Georgia, SimSun, serif" font-size="16">BOSS</text><text x="480" y="600" fill="#F5F0EB" font-family="Georgia, SimSun, serif" font-size="16">fresh</text><text x="570" y="600" fill="#F5F0EB" font-family="Georgia, SimSun, serif" font-size="16">JORYA</text><text x="670" y="600" fill="#F5F0EB" font-family="Georgia, SimSun, serif" font-size="16">ARKET</text><text x="780" y="600" fill="#F5F0EB" font-family="Georgia, SimSun, serif" font-size="16">Steve Madden</text><text x="940" y="600" fill="#F5F0EB" font-family="Georgia, SimSun, serif" font-size="16">Crocs</text><text x="195" y="600" fill="#8B7355" font-family="Georgia, SimSun, serif" font-size="14">·</text><text x="345" y="600" fill="#8B7355" font-family="Georgia, SimSun, serif" font-size="14">·</text><text x="445" y="600" fill="#8B7355" font-family="Georgia, SimSun, serif" font-size="14">·</text><text x="535" y="600" fill="#8B7355" font-family="Georgia, SimSun, serif" font-size="14">·</text><text x="635" y="600" fill="#8B7355" font-family="Georgia, SimSun, serif" font-size="14">·</text><text x="735" y="600" fill="#8B7355" font-family="Georgia, SimSun, serif" font-size="14">·</text><text x="905" y="600" fill="#8B7355" font-family="Georgia, SimSun, serif" font-size="14">·</text><rect width="1180" height="1" x="50" y="670" fill="#2A2520"/><text x="50" y="695" fill="#9E9690" font-family="'Microsoft YaHei', 'PingFang SC', Arial, sans-serif" font-size="11">NEWS Café · 美学周鉴</text><text x="1230" y="695" fill="#9E9690" font-family="'Microsoft YaHei', 'PingFang SC', Arial, sans-serif" font-size="11" text-anchor="end">15 / 16</text></svg>