<svg xmlns="http://www.w3.org/2000/svg" width="1280" height="720" viewBox="0 0 1280 720"><defs><linearGradient id="bgGrad01" x1="0%" x2="100%" y1="0%" y2="100%"><stop offset="0%" stop-color="#F7F2E8"/><stop offset="100%" stop-color="#EDE5D3"/></linearGradient><linearGradient id="sealGrad01" x1="0%" x2="0%" y1="0%" y2="100%"><stop offset="0%" stop-color="#C99E62"/><stop offset="100%" stop-color="#6F8F75"/></linearGradient><radialGradient id="decor01" cx="85%" cy="15%" r="60%"><stop offset="0%" stop-color="#6B9AAE" stop-opacity=".15"/><stop offset="100%" stop-color="#6B9AAE" stop-opacity="0"/></radialGradient><filter id="imgShadow01" width="120%" height="120%" x="-10%" y="-10%"><feGaussianBlur in="SourceAlpha" stdDeviation="8"/><feOffset dx="0" dy="6"/><feComponentTransfer><feFuncA slope=".25" type="linear"/></feComponentTransfer><feMerge><feMergeNode/><feMergeNode in="SourceGraphic"/></feMerge></filter></defs><rect width="1280" height="720" fill="url(#bgGrad01)"/><rect width="1280" height="720" fill="url(#decor01)"/><g id="bg-texture-dots"><circle cx="120" cy="120" r="1.5" fill="#D7CEB9" fill-opacity=".5"/><circle cx="220" cy="180" r="1" fill="#D7CEB9" fill-opacity=".4"/><circle cx="380" cy="90" r="1.2" fill="#D7CEB9" fill-opacity=".4"/><circle cx="520" cy="140" r="1" fill="#D7CEB9" fill-opacity=".5"/><circle cx="1080" cy="640" r="1.5" fill="#D7CEB9" fill-opacity=".4"/><circle cx="1180" cy="580" r="1" fill="#D7CEB9" fill-opacity=".5"/><circle cx="980" cy="680" r="1.2" fill="#D7CEB9" fill-opacity=".4"/></g><g id="top-bar"><line x1="60" x2="160" y1="80" y2="80" stroke="#C99E62" stroke-width="2"/><text x="175" y="85" fill="#7A7068" font-family="KaiTi, STKaiti, Georgia, serif" font-size="18" letter-spacing="2">國色三百 · 草木成诗</text></g><g id="main-seal" transform="translate(80,180)"><rect width="110" height="110" x="0" y="0" fill="url(#sealGrad01)" rx="4"/><rect width="94" height="94" x="8" y="8" fill="none" stroke="#F7F2E8" stroke-width="2" rx="2"/><text x="55" y="50" fill="#F7F2E8" font-family="KaiTi, STKaiti, Georgia, serif" font-size="24" font-weight="bold" letter-spacing="2" text-anchor="middle">草木</text><text x="55" y="85" fill="#F7F2E8" font-family="KaiTi, STKaiti, Georgia, serif" font-size="24" font-weight="bold" letter-spacing="2" text-anchor="middle">成诗</text></g><g id="title-group"><text x="80" y="380" fill="#3A3530" font-family="KaiTi, STKaiti, Georgia, serif" font-size="82" font-weight="bold" letter-spacing="6">裁云织月</text><text x="80" y="470" fill="#6B9AAE" font-family="KaiTi, STKaiti, Georgia, serif" font-size="82" font-weight="bold" letter-spacing="6">草木成诗</text><rect width="120" height="3" x="80" y="500" fill="#C99E62"/><text x="80" y="545" fill="#7A7068" font-family="KaiTi, STKaiti, Georgia, serif" font-size="22" letter-spacing="3">揭秘李子柒春晚战袍背后</text><text x="80" y="580" fill="#7A7068" font-family="KaiTi, STKaiti, Georgia, serif" font-size="22" letter-spacing="3">植物染成的 300 种中国传统色</text></g><g id="cover-image" transform="translate(720,135)"><rect width="496" height="296" x="-8" y="-8" fill="#F7F2E8" stroke="#C99E62" stroke-width="1"/><image width="480" height="280" x="0" y="0" filter="url(#imgShadow01)" href="../images/640.png" preserveAspectRatio="xMidYMid slice"/><text x="240" y="305" fill="#9B948B" font-family="KaiTi, STKaiti, Georgia, serif" font-size="14" letter-spacing="1" text-anchor="middle">2025 央视春晚《迎福》视觉秀</text></g><g id="cover-tags" transform="translate(720,370)"><rect width="150" height="38" x="0" y="0" fill="none" stroke="#6B9AAE" stroke-width="1.5" rx="19"/><text x="75" y="24" fill="#6B9AAE" font-family="KaiTi, STKaiti, Georgia, serif" font-size="16" letter-spacing="2" text-anchor="middle">植物染 · 非遗</text><rect width="150" height="38" x="165" y="0" fill="none" stroke="#C99E62" stroke-width="1.5" rx="19"/><text x="240" y="24" fill="#C99E62" font-family="KaiTi, STKaiti, Georgia, serif" font-size="16" letter-spacing="2" text-anchor="middle">东方 · 美学</text><rect width="150" height="38" x="330" y="0" fill="none" stroke="#B04A5C" stroke-width="1.5" rx="19"/><text x="405" y="24" fill="#B04A5C" font-family="KaiTi, STKaiti, Georgia, serif" font-size="16" letter-spacing="2" text-anchor="middle">五方 · 正色</text></g><g id="bottom-decor"><use width="32" height="32" x="720" y="480" fill="#6F8F75" data-icon="tabler-filled/leaf"/><text x="765" y="503" fill="#3A3530" font-family="KaiTi, STKaiti, Georgia, serif" font-size="20">一袭黄青，染尽山河</text></g><g id="footer"><line x1="60" x2="1220" y1="670" y2="670" stroke="#D7CEB9" stroke-width="1"/><text x="60" y="695" fill="#9B948B" font-family="KaiTi, STKaiti, Georgia, serif" font-size="13" letter-spacing="1">文字整理自凤凰空间 · 孙琬童</text><text x="1220" y="695" fill="#9B948B" font-family="KaiTi, STKaiti, Georgia, serif" font-size="13" letter-spacing="1" text-anchor="end">2026.04 · 文化分享</text></g></svg>