<svg xmlns="http://www.w3.org/2000/svg" width="1280" height="720" viewBox="0 0 1280 720"><defs><radialGradient id="bgGlow1" cx="70%" cy="30%" r="50%"><stop offset="0%" stop-color="#D4845A" stop-opacity=".12"/><stop offset="100%" stop-color="#D4845A" stop-opacity="0"/></radialGradient><radialGradient id="bgGlow2" cx="25%" cy="75%" r="45%"><stop offset="0%" stop-color="#5B9BD5" stop-opacity=".08"/><stop offset="100%" stop-color="#5B9BD5" stop-opacity="0"/></radialGradient><linearGradient id="accentLine" x1="0%" x2="100%" y1="0%" y2="0%"><stop offset="0%" stop-color="#D4845A"/><stop offset="100%" stop-color="#E8B87D"/></linearGradient><filter id="softShadow" width="140%" height="140%" x="-15%" y="-15%"><feGaussianBlur in="SourceAlpha" stdDeviation="12"/><feOffset dx="0" dy="6" result="offsetBlur"/><feFlood flood-color="#000" flood-opacity=".15" result="shadowColor"/><feComposite in="shadowColor" in2="offsetBlur" operator="in" result="shadow"/><feMerge><feMergeNode in="shadow"/><feMergeNode in="SourceGraphic"/></feMerge></filter></defs><rect width="1280" height="720" fill="#0F1117"/><rect width="1280" height="720" fill="url(#bgGlow1)"/><rect width="1280" height="720" fill="url(#bgGlow2)"/><g id="grid-dots"><circle cx="120" cy="120" r="1.5" fill="#2D3348" fill-opacity=".6"/><circle cx="200" cy="120" r="1.5" fill="#2D3348" fill-opacity=".6"/><circle cx="280" cy="120" r="1.5" fill="#2D3348" fill-opacity=".6"/><circle cx="360" cy="120" r="1.5" fill="#2D3348" fill-opacity=".6"/><circle cx="120" cy="200" r="1.5" fill="#2D3348" fill-opacity=".6"/><circle cx="200" cy="200" r="1.5" fill="#2D3348" fill-opacity=".6"/><circle cx="280" cy="200" r="1.5" fill="#2D3348" fill-opacity=".6"/><circle cx="360" cy="200" r="1.5" fill="#2D3348" fill-opacity=".6"/><circle cx="920" cy="520" r="1.5" fill="#2D3348" fill-opacity=".6"/><circle cx="1000" cy="520" r="1.5" fill="#2D3348" fill-opacity=".6"/><circle cx="1080" cy="520" r="1.5" fill="#2D3348" fill-opacity=".6"/><circle cx="1160" cy="520" r="1.5" fill="#2D3348" fill-opacity=".6"/><circle cx="920" cy="600" r="1.5" fill="#2D3348" fill-opacity=".6"/><circle cx="1000" cy="600" r="1.5" fill="#2D3348" fill-opacity=".6"/><circle cx="1080" cy="600" r="1.5" fill="#2D3348" fill-opacity=".6"/><circle cx="1160" cy="600" r="1.5" fill="#2D3348" fill-opacity=".6"/></g><circle cx="1050" cy="180" r="80" fill="none" stroke="#D4845A" stroke-opacity=".08" stroke-width="1"/><circle cx="1050" cy="180" r="120" fill="none" stroke="#D4845A" stroke-opacity=".05" stroke-width="1"/><circle cx="230" cy="550" r="60" fill="none" stroke="#5B9BD5" stroke-opacity=".06" stroke-width="1"/><circle cx="230" cy="550" r="95" fill="none" stroke="#5B9BD5" stroke-opacity=".04" stroke-width="1"/><g id="cover-icon"><use width="88" height="88" x="596" y="200" fill="#D4845A" data-icon="chunk/robot"/></g><rect width="200" height="4" x="540" y="310" fill="url(#accentLine)" rx="2"/><g id="cover-title"><text x="640" y="375" fill="#E8E8EC" font-family="'Helvetica Neue', Arial, sans-serif" font-size="60" font-weight="bold" text-anchor="middle">Building Effective</text><text x="640" y="440" fill="#D4845A" font-family="'Helvetica Neue', Arial, sans-serif" font-size="60" font-weight="bold" text-anchor="middle">Agents</text></g><text x="640" y="490" fill="#9CA3AF" font-family="'Helvetica Neue', Arial, sans-serif" font-size="22" text-anchor="middle">Simple, composable patterns for LLM-based agentic systems</text><g id="cover-footer"><rect width="1280" height="1" x="0" y="660" fill="#2D3348" fill-opacity=".5"/><text x="60" y="692" fill="#6B7280" font-family="'Helvetica Neue', Arial, sans-serif" font-size="14">Anthropic Engineering</text><text x="1220" y="692" fill="#6B7280" font-family="'Helvetica Neue', Arial, sans-serif" font-size="14" text-anchor="end">December 2024</text></g></svg>